  0
SECTION
  2
HEADER
  9
$ACADVER
  1
AC1032
  9
$ACADMAINTVER
 90
       55
  9
$DWGCODEPAGE
  3
ISO8859-1
  9
$LASTSAVEDBY
  1
david
  9
$REQUIREDVERSIONS
160
                 0
  9
$INSBASE
 10
0.0
 20
0.0
 30
0.0
  9
$EXTMIN
 10
1.000000000000000E+20
 20
1.000000000000000E+20
 30
1.000000000000000E+20
  9
$EXTMAX
 10
-1.000000000000000E+20
 20
-1.000000000000000E+20
 30
-1.000000000000000E+20
  9
$LIMMIN
 10
0.0
 20
0.0
  9
$LIMMAX
 10
420.0
 20
297.0
  9
$ORTHOMODE
 70
     0
  9
$REGENMODE
 70
     1
  9
$FILLMODE
 70
     1
  9
$QTEXTMODE
 70
     0
  9
$MIRRTEXT
 70
     1
  9
$LTSCALE
 40
1.0
  9
$ATTMODE
 70
     1
  9
$TEXTSIZE
 40
2.5
  9
$TRACEWID
 40
1.0
  9
$TEXTSTYLE
  7
Standard
  9
$CLAYER
  8
0
  9
$CELTYPE
  6
ByLayer
  9
$CECOLOR
 62
   256
  9
$CELTSCALE
 40
1.0
  9
$DISPSILH
 70
     0
  9
$DIMSCALE
 40
1.0
  9
$DIMASZ
 40
2.5
  9
$DIMEXO
 40
0.625
  9
$DIMDLI
 40
3.75
  9
$DIMRND
 40
0.0
  9
$DIMDLE
 40
0.0
  9
$DIMEXE
 40
1.25
  9
$DIMTP
 40
0.0
  9
$DIMTM
 40
0.0
  9
$DIMTXT
 40
2.5
  9
$DIMCEN
 40
2.5
  9
$DIMTSZ
 40
0.0
  9
$DIMTOL
 70
     0
  9
$DIMLIM
 70
     0
  9
$DIMTIH
 70
     0
  9
$DIMTOH
 70
     0
  9
$DIMSE1
 70
     0
  9
$DIMSE2
 70
     0
  9
$DIMTAD
 70
     1
  9
$DIMZIN
 70
     8
  9
$DIMBLK
  1

  9
$DIMASO
 70
     1
  9
$DIMSHO
 70
     1
  9
$DIMPOST
  1

  9
$DIMAPOST
  1

  9
$DIMALT
 70
     0
  9
$DIMALTD
 70
     3
  9
$DIMALTF
 40
0.03937007874016
  9
$DIMLFAC
 40
1.0
  9
$DIMTOFL
 70
     1
  9
$DIMTVP
 40
0.0
  9
$DIMTIX
 70
     0
  9
$DIMSOXD
 70
     0
  9
$DIMSAH
 70
     0
  9
$DIMBLK1
  1

  9
$DIMBLK2
  1

  9
$DIMSTYLE
  2
ISO-25
  9
$DIMCLRD
 70
     0
  9
$DIMCLRE
 70
     0
  9
$DIMCLRT
 70
     0
  9
$DIMTFAC
 40
1.0
  9
$DIMGAP
 40
0.625
  9
$DIMJUST
 70
     0
  9
$DIMSD1
 70
     0
  9
$DIMSD2
 70
     0
  9
$DIMTOLJ
 70
     0
  9
$DIMTZIN
 70
     8
  9
$DIMALTZ
 70
     0
  9
$DIMALTTZ
 70
     0
  9
$DIMUPT
 70
     0
  9
$DIMDEC
 70
     2
  9
$DIMTDEC
 70
     2
  9
$DIMALTU
 70
     2
  9
$DIMALTTD
 70
     3
  9
$DIMTXSTY
  7
Standard
  9
$DIMAUNIT
 70
     0
  9
$DIMADEC
 70
     0
  9
$DIMALTRND
 40
0.0
  9
$DIMAZIN
 70
     0
  9
$DIMDSEP
 70
    44
  9
$DIMATFIT
 70
     3
  9
$DIMFRAC
 70
     0
  9
$DIMLDRBLK
  1

  9
$DIMLUNIT
 70
     2
  9
$DIMLWD
 70
    -2
  9
$DIMLWE
 70
    -2
  9
$DIMTMOVE
 70
     0
  9
$DIMFXL
 40
1.0
  9
$DIMFXLON
 70
     0
  9
$DIMJOGANG
 40
0.7853981633974483
  9
$DIMTFILL
 70
     0
  9
$DIMTFILLCLR
 70
     0
  9
$DIMARCSYM
 70
     0
  9
$DIMLTYPE
  6

  9
$DIMLTEX1
  6

  9
$DIMLTEX2
  6

  9
$DIMTXTDIRECTION
 70
     0
  9
$LUNITS
 70
     2
  9
$LUPREC
 70
     4
  9
$SKETCHINC
 40
1.0
  9
$FILLETRAD
 40
0.0
  9
$AUNITS
 70
     0
  9
$AUPREC
 70
     0
  9
$MENU
  1
.
  9
$ELEVATION
 40
0.0
  9
$PELEVATION
 40
0.0
  9
$THICKNESS
 40
0.0
  9
$LIMCHECK
 70
     0
  9
$CHAMFERA
 40
0.0
  9
$CHAMFERB
 40
0.0
  9
$CHAMFERC
 40
0.0
  9
$CHAMFERD
 40
0.0
  9
$SKPOLY
 70
     0
  9
$TDCREATE
 40
2461066.724509144
  9
$TDUCREATE
 40
2461066.932842477
  9
$TDUPDATE
 40
2461066.724509178
  9
$TDUUPDATE
 40
2461066.932842512
  9
$TDINDWG
 40
0.0000000116
  9
$TDUSRTIMER
 40
0.0000000116
  9
$USRTIMER
 70
     1
  9
$ANGBASE
 50
0.0
  9
$ANGDIR
 70
     0
  9
$PDMODE
 70
     0
  9
$PDSIZE
 40
0.0
  9
$PLINEWID
 40
0.0
  9
$SPLFRAME
 70
     0
  9
$SPLINETYPE
 70
     6
  9
$SPLINESEGS
 70
     8
  9
$HANDSEED
  5
E8
  9
$SURFTAB1
 70
     6
  9
$SURFTAB2
 70
     6
  9
$SURFTYPE
 70
     6
  9
$SURFU
 70
     6
  9
$SURFV
 70
     6
  9
$UCSBASE
  2

  9
$UCSNAME
  2

  9
$UCSORG
 10
0.0
 20
0.0
 30
0.0
  9
$UCSXDIR
 10
1.0
 20
0.0
 30
0.0
  9
$UCSYDIR
 10
0.0
 20
1.0
 30
0.0
  9
$UCSORTHOREF
  2

  9
$UCSORTHOVIEW
 70
     0
  9
$UCSORGTOP
 10
0.0
 20
0.0
 30
0.0
  9
$UCSORGBOTTOM
 10
0.0
 20
0.0
 30
0.0
  9
$UCSORGLEFT
 10
0.0
 20
0.0
 30
0.0
  9
$UCSORGRIGHT
 10
0.0
 20
0.0
 30
0.0
  9
$UCSORGFRONT
 10
0.0
 20
0.0
 30
0.0
  9
$UCSORGBACK
 10
0.0
 20
0.0
 30
0.0
  9
$PUCSBASE
  2

  9
$PUCSNAME
  2

  9
$PUCSORG
 10
0.0
 20
0.0
 30
0.0
  9
$PUCSXDIR
 10
1.0
 20
0.0
 30
0.0
  9
$PUCSYDIR
 10
0.0
 20
1.0
 30
0.0
  9
$PUCSORTHOREF
  2

  9
$PUCSORTHOVIEW
 70
     0
  9
$PUCSORGTOP
 10
0.0
 20
0.0
 30
0.0
  9
$PUCSORGBOTTOM
 10
0.0
 20
0.0
 30
0.0
  9
$PUCSORGLEFT
 10
0.0
 20
0.0
 30
0.0
  9
$PUCSORGRIGHT
 10
0.0
 20
0.0
 30
0.0
  9
$PUCSORGFRONT
 10
0.0
 20
0.0
 30
0.0
  9
$PUCSORGBACK
 10
0.0
 20
0.0
 30
0.0
  9
$USERI1
 70
     0
  9
$USERI2
 70
     0
  9
$USERI3
 70
     0
  9
$USERI4
 70
     0
  9
$USERI5
 70
     0
  9
$USERR1
 40
0.0
  9
$USERR2
 40
0.0
  9
$USERR3
 40
0.0
  9
$USERR4
 40
0.0
  9
$USERR5
 40
0.0
  9
$WORLDVIEW
 70
     1
  9
$SHADEDGE
 70
     3
  9
$SHADEDIF
 70
    70
  9
$TILEMODE
 70
     1
  9
$MAXACTVP
 70
    64
  9
$PINSBASE
 10
0.0
 20
0.0
 30
0.0
  9
$PLIMCHECK
 70
     0
  9
$PEXTMIN
 10
100.0846666666666
 20
340.0846666666667
 30
0.0
  9
$PEXTMAX
 10
0.0
 20
0.0
 30
0.0
  9
$PLIMMIN
 10
-20.0
 20
-7.5
  9
$PLIMMAX
 10
277.0
 20
202.5
  9
$UNITMODE
 70
     0
  9
$VISRETAIN
 70
     1
  9
$PLINEGEN
 70
     0
  9
$PSLTSCALE
 70
     1
  9
$TREEDEPTH
 70
  3020
  9
$CMLSTYLE
  2
Standard
  9
$CMLJUST
 70
     0
  9
$CMLSCALE
 40
20.0
  9
$PROXYGRAPHICS
 70
     1
  9
$MEASUREMENT
 70
     1
  9
$CELWEIGHT
370
    -1
  9
$ENDCAPS
280
     0
  9
$JOINSTYLE
280
     0
  9
$LWDISPLAY
290
     0
  9
$INSUNITS
 70
     4
  9
$HYPERLINKBASE
  1

  9
$STYLESHEET
  1

  9
$XEDIT
290
     1
  9
$CEPSNTYPE
380
     0
  9
$PSTYLEMODE
290
     1
  9
$FINGERPRINTGUID
  2
{06654804-03a9-7c4c-9a5d-f03112a6aa7e}
  9
$VERSIONGUID
  2
{FAEB1C32-E019-11D5-929B-00C0DF256EC4}
  9
$EXTNAMES
290
     1
  9
$PSVPSCALE
 40
0.0
  9
$OLESTARTUP
290
     0
  9
$SORTENTS
280
   127
  9
$INDEXCTL
280
     0
  9
$HIDETEXT
280
     1
  9
$XCLIPFRAME
280
     2
  9
$HALOGAP
280
     0
  9
$OBSCOLOR
 70
   257
  9
$OBSLTYPE
280
     0
  9
$INTERSECTIONDISPLAY
280
     0
  9
$INTERSECTIONCOLOR
 70
   257
  9
$DIMASSOC
280
     2
  9
$PROJECTNAME
  1

  9
$CAMERADISPLAY
290
     0
  9
$LENSLENGTH
 40
50.0
  9
$CAMERAHEIGHT
 40
0.0
  9
$STEPSPERSEC
 40
2.0
  9
$STEPSIZE
 40
6.0
  9
$3DDWFPREC
 40
2.0
  9
$PSOLWIDTH
 40
5.0
  9
$PSOLHEIGHT
 40
80.0
  9
$LOFTANG1
 40
1.570796326794897
  9
$LOFTANG2
 40
1.570796326794897
  9
$LOFTMAG1
 40
0.0
  9
$LOFTMAG2
 40
0.0
  9
$LOFTPARAM
 70
     7
  9
$LOFTNORMALS
280
     1
  9
$LATITUDE
 40
37.795
  9
$LONGITUDE
 40
-122.394
  9
$NORTHDIRECTION
 40
0.0
  9
$TIMEZONE
 70
 -8000
  9
$LIGHTGLYPHDISPLAY
280
     1
  9
$TILEMODELIGHTSYNCH
280
     1
  9
$CMATERIAL
347
44
  9
$SOLIDHIST
280
     0
  9
$SHOWHIST
280
     1
  9
$DWFFRAME
280
     2
  9
$DGNFRAME
280
     2
  9
$REALWORLDSCALE
290
     1
  9
$INTERFERECOLOR
 62
   256
  9
$CSHADOW
280
     0
  9
$SHADOWPLANELOCATION
 40
0.0
  0
ENDSEC
  0
SECTION
  2
CLASSES
  0
CLASS
  1
ACDBDICTIONARYWDFLT
  2
AcDbDictionaryWithDefault
  3
ObjectDBX Classes
 90
        0
 91
        3
280
     0
281
     0
  0
CLASS
  1
VISUALSTYLE
  2
AcDbVisualStyle
  3
ObjectDBX Classes
 90
     4095
 91
        3
280
     0
281
     0
  0
CLASS
  1
MATERIAL
  2
AcDbMaterial
  3
ObjectDBX Classes
 90
     1153
 91
        3
280
     0
281
     0
  0
CLASS
  1
SCALE
  2
AcDbScale
  3
ObjectDBX Classes
 90
     1153
 91
        3
280
     0
281
     0
  0
CLASS
  1
TABLESTYLE
  2
AcDbTableStyle
  3
ObjectDBX Classes
 90
     4095
 91
        3
280
     0
281
     0
  0
CLASS
  1
MLEADERSTYLE
  2
AcDbMLeaderStyle
  3
ACDB_MLEADERSTYLE_CLASS
 90
     4095
 91
        3
280
     0
281
     0
  0
CLASS
  1
SUN
  2
AcDbSun
  3
SCENEOE
 90
     1153
 91
        3
280
     0
281
     0
  0
CLASS
  1
DICTIONARYVAR
  2
AcDbDictionaryVar
  3
ObjectDBX Classes
 90
        0
 91
        3
280
     0
281
     0
  0
CLASS
  1
CELLSTYLEMAP
  2
AcDbCellStyleMap
  3
ObjectDBX Classes
 90
     1152
 91
        3
280
     0
281
     0
  0
ENDSEC
  0
SECTION
  2
TABLES
  0
TABLE
  2
VPORT
  5
8
330
0
100
AcDbSymbolTable
 70
     1
  0
VPORT
  5
29
330
8
100
AcDbSymbolTableRecord
100
AcDbViewportTableRecord
  2
*Active
 70
     0
 10
0.0
 20
0.0
 11
1.0
 21
1.0
 12
210.0
 22
50.04233333333335
 13
0.0
 23
0.0
 14
10.0
 24
10.0
 15
10.0
 25
10.0
 16
0.0
 26
0.0
 36
1.0
 17
0.0
 27
0.0
 37
0.0
 40
172.3716803760118
 41
1.972972972850328
 42
50.0
 43
0.0
 44
0.0
 50
0.0
 51
0.0
 71
     0
 72
   100
 73
     1
 74
     3
 75
     0
 76
     0
 77
     0
 78
     0
281
     0
 65
     1
110
0.0
120
0.0
130
0.0
111
1.0
121
0.0
131
0.0
112
0.0
122
1.0
132
0.0
 79
     0
146
0.0
348
2F
 60
     3
 61
     5
292
     1
282
     1
141
0.0
142
0.0
 63
   250
361
5D
  0
ENDTAB
  0
TABLE
  2
LTYPE
  5
5
330
0
100
AcDbSymbolTable
 70
     1
  0
LTYPE
  5
14
330
5
100
AcDbSymbolTableRecord
100
AcDbLinetypeTableRecord
  2
ByBlock
 70
     0
  3

 72
    65
 73
     0
 40
0.0
  0
LTYPE
  5
15
330
5
100
AcDbSymbolTableRecord
100
AcDbLinetypeTableRecord
  2
ByLayer
 70
     0
  3

 72
    65
 73
     0
 40
0.0
  0
LTYPE
  5
16
330
5
100
AcDbSymbolTableRecord
100
AcDbLinetypeTableRecord
  2
Continuous
 70
     0
  3
Solid line
 72
    65
 73
     0
 40
0.0
  0
ENDTAB
  0
TABLE
  2
LAYER
  5
2
330
0
100
AcDbSymbolTable
 70
     1
  0
LAYER
  5
10
330
2
100
AcDbSymbolTableRecord
100
AcDbLayerTableRecord
  2
0
 70
     0
 62
     7
  6
Continuous
370
    -3
390
F
347
46
348
0
  0
ENDTAB
  0
TABLE
  2
STYLE
  5
3
330
0
100
AcDbSymbolTable
 70
     1
  0
STYLE
  5
11
330
3
100
AcDbSymbolTableRecord
100
AcDbTextStyleTableRecord
  2
Standard
 70
     0
 40
0.0
 41
1.0
 50
0.0
 71
     0
 42
2.5
  3
txt
  4

  0
ENDTAB
  0
TABLE
  2
VIEW
  5
6
330
0
100
AcDbSymbolTable
 70
     0
  0
ENDTAB
  0
TABLE
  2
UCS
  5
7
330
0
100
AcDbSymbolTable
 70
     0
  0
ENDTAB
  0
TABLE
  2
APPID
  5
9
330
0
100
AcDbSymbolTable
 70
     1
  0
APPID
  5
12
330
9
100
AcDbSymbolTableRecord
100
AcDbRegAppTableRecord
  2
ACAD
 70
     0
  0
ENDTAB
  0
TABLE
  2
DIMSTYLE
  5
A
330
0
100
AcDbSymbolTable
 70
     1
100
AcDbDimStyleTable
  0
DIMSTYLE
105
27
330
A
100
AcDbSymbolTableRecord
100
AcDbDimStyleTableRecord
  2
ISO-25
 70
     0
 41
2.5
 42
0.625
 43
3.75
 44
1.25
 73
     0
 74
     0
 77
     1
 78
     8
140
2.5
141
2.5
143
0.03937007874016
147
0.625
171
     3
172
     1
178
     0
271
     2
272
     2
274
     3
278
    44
283
     0
284
     8
340
11
  0
ENDTAB
  0
TABLE
  2
BLOCK_RECORD
  5
1
330
0
100
AcDbSymbolTable
 70
     0
  0
BLOCK_RECORD
  5
1F
330
1
100
AcDbSymbolTableRecord
100
AcDbBlockTableRecord
  2
*Model_Space
340
22
 70
     0
280
     1
281
     0
  0
BLOCK_RECORD
  5
D5
330
1
100
AcDbSymbolTableRecord
100
AcDbBlockTableRecord
  2
*Paper_Space
340
D6
 70
     0
280
     1
281
     0
  0
ENDTAB
  0
ENDSEC
  0
SECTION
  2
BLOCKS
  0
BLOCK
  5
20
330
1F
100
AcDbEntity
  8
0
100
AcDbBlockBegin
  2
*Model_Space
 70
     0
 10
0.0
 20
0.0
 30
0.0
  3
*Model_Space
  1

  0
ENDBLK
  5
21
330
1F
100
AcDbEntity
  8
0
100
AcDbBlockEnd
  0
BLOCK
  5
D7
330
D5
100
AcDbEntity
 67
     1
  8
0
100
AcDbBlockBegin
  2
*Paper_Space
 70
     0
 10
0.0
 20
0.0
 30
0.0
  3
*Paper_Space
  1

  0
ENDBLK
  5
D8
330
D5
100
AcDbEntity
 67
     1
  8
0
100
AcDbBlockEnd
  0
ENDSEC
  0
SECTION
  2
ENTITIES
  0
LWPOLYLINE
  5
5E
330
1F
100
AcDbEntity
  8
0
  6
Continuous
 62
    18
420
        0
370
     9
100
AcDbPolyline
 90
        5
 70
     1
 43
0.0
 10
380.0
 20
100.0423333333333
 10
380.0
 20
0.042333333333346
 10
39.99999999999999
 20
0.042333333333346
 10
39.99999999999999
 20
100.0423333333333
 10
380.0
 20
100.0423333333333
  0
HATCH
  5
5F
330
1F
100
AcDbEntity
  8
0
 62
     7
420
 15461355
440
 33554687
100
AcDbHatch
 10
0.0
 20
0.0
 30
0.0
210
0.0
220
0.0
230
1.0
  2
SOLID
 70
     1
 71
     1
 91
        1
 92
        0
 93
        4
 72
     1
 10
67.0
 20
27.04233333333337
 11
67.0
 21
13.04233333333335
 72
     1
 10
67.0
 20
13.04233333333335
 11
53.00000000000001
 21
13.04233333333335
 72
     1
 10
53.00000000000001
 20
13.04233333333335
 11
53.00000000000001
 21
27.04233333333337
 72
     1
 10
53.00000000000001
 20
27.04233333333337
 11
67.0
 21
27.04233333333337
 97
        0
 75
     0
 76
     1
 98
        0
  0
LWPOLYLINE
  5
60
330
1F
100
AcDbEntity
  8
0
  6
Continuous
 62
    18
420
        0
370
     9
100
AcDbPolyline
 90
        5
 70
     1
 43
0.0
 10
67.0
 20
27.04233333333337
 10
67.0
 20
13.04233333333335
 10
53.00000000000001
 20
13.04233333333335
 10
53.00000000000001
 20
27.04233333333337
 10
67.0
 20
27.04233333333337
  0
HATCH
  5
61
330
1F
100
AcDbEntity
  8
0
 62
     7
420
 15461355
440
 33554687
100
AcDbHatch
 10
0.0
 20
0.0
 30
0.0
210
0.0
220
0.0
230
1.0
  2
SOLID
 70
     1
 71
     1
 91
        1
 92
        0
 93
        4
 72
     1
 10
86.99999999999999
 20
57.04233333333332
 11
86.99999999999999
 21
43.04233333333335
 72
     1
 10
86.99999999999999
 20
43.04233333333335
 11
73.0
 21
43.04233333333335
 72
     1
 10
73.0
 20
43.04233333333335
 11
73.0
 21
57.04233333333332
 72
     1
 10
73.0
 20
57.04233333333332
 11
86.99999999999999
 21
57.04233333333332
 97
        0
 75
     0
 76
     1
 98
        0
  0
LWPOLYLINE
  5
62
330
1F
100
AcDbEntity
  8
0
  6
Continuous
 62
    18
420
        0
370
     9
100
AcDbPolyline
 90
        5
 70
     1
 43
0.0
 10
86.99999999999999
 20
57.04233333333332
 10
86.99999999999999
 20
43.04233333333335
 10
73.0
 20
43.04233333333335
 10
73.0
 20
57.04233333333332
 10
86.99999999999999
 20
57.04233333333332
  0
HATCH
  5
63
330
1F
100
AcDbEntity
  8
0
 62
     7
420
 15461355
440
 33554687
100
AcDbHatch
 10
0.0
 20
0.0
 30
0.0
210
0.0
220
0.0
230
1.0
  2
SOLID
 70
     1
 71
     1
 91
        1
 92
        0
 93
        4
 72
     1
 10
67.0
 20
57.04233333333332
 11
67.0
 21
43.04233333333335
 72
     1
 10
67.0
 20
43.04233333333335
 11
53.00000000000001
 21
43.04233333333335
 72
     1
 10
53.00000000000001
 20
43.04233333333335
 11
53.00000000000001
 21
57.04233333333332
 72
     1
 10
53.00000000000001
 20
57.04233333333332
 11
67.0
 21
57.04233333333332
 97
        0
 75
     0
 76
     1
 98
        0
  0
LWPOLYLINE
  5
64
330
1F
100
AcDbEntity
  8
0
  6
Continuous
 62
    18
420
        0
370
     9
100
AcDbPolyline
 90
        5
 70
     1
 43
0.0
 10
67.0
 20
57.04233333333332
 10
67.0
 20
43.04233333333335
 10
53.00000000000001
 20
43.04233333333335
 10
53.00000000000001
 20
57.04233333333332
 10
67.0
 20
57.04233333333332
  0
HATCH
  5
65
330
1F
100
AcDbEntity
  8
0
 62
     7
420
 15461355
440
 33554687
100
AcDbHatch
 10
0.0
 20
0.0
 30
0.0
210
0.0
220
0.0
230
1.0
  2
SOLID
 70
     1
 71
     1
 91
        1
 92
        0
 93
        4
 72
     1
 10
86.99999999999999
 20
27.04233333333337
 11
86.99999999999999
 21
13.04233333333335
 72
     1
 10
86.99999999999999
 20
13.04233333333335
 11
73.0
 21
13.04233333333335
 72
     1
 10
73.0
 20
13.04233333333335
 11
73.0
 21
27.04233333333337
 72
     1
 10
73.0
 20
27.04233333333337
 11
86.99999999999999
 21
27.04233333333337
 97
        0
 75
     0
 76
     1
 98
        0
  0
LWPOLYLINE
  5
66
330
1F
100
AcDbEntity
  8
0
  6
Continuous
 62
    18
420
        0
370
     9
100
AcDbPolyline
 90
        5
 70
     1
 43
0.0
 10
86.99999999999999
 20
27.04233333333337
 10
86.99999999999999
 20
13.04233333333335
 10
73.0
 20
13.04233333333335
 10
73.0
 20
27.04233333333337
 10
86.99999999999999
 20
27.04233333333337
  0
HATCH
  5
67
330
1F
100
AcDbEntity
  8
0
 62
     7
420
 15461355
440
 33554687
100
AcDbHatch
 10
0.0
 20
0.0
 30
0.0
210
0.0
220
0.0
230
1.0
  2
SOLID
 70
     1
 71
     1
 91
        1
 92
        0
 93
        4
 72
     1
 10
107.0
 20
57.04233333333332
 11
107.0
 21
43.04233333333335
 72
     1
 10
107.0
 20
43.04233333333335
 11
93.0
 21
43.04233333333335
 72
     1
 10
93.0
 20
43.04233333333335
 11
93.0
 21
57.04233333333332
 72
     1
 10
93.0
 20
57.04233333333332
 11
107.0
 21
57.04233333333332
 97
        0
 75
     0
 76
     1
 98
        0
  0
LWPOLYLINE
  5
68
330
1F
100
AcDbEntity
  8
0
  6
Continuous
 62
    18
420
        0
370
     9
100
AcDbPolyline
 90
        5
 70
     1
 43
0.0
 10
107.0
 20
57.04233333333332
 10
107.0
 20
43.04233333333335
 10
93.0
 20
43.04233333333335
 10
93.0
 20
57.04233333333332
 10
107.0
 20
57.04233333333332
  0
HATCH
  5
69
330
1F
100
AcDbEntity
  8
0
 62
     7
420
 15461355
440
 33554687
100
AcDbHatch
 10
0.0
 20
0.0
 30
0.0
210
0.0
220
0.0
230
1.0
  2
SOLID
 70
     1
 71
     1
 91
        1
 92
        0
 93
        4
 72
     1
 10
97.50000000000001
 20
91.79233333333333
 11
97.50000000000001
 21
68.29233333333335
 72
     1
 10
97.50000000000001
 20
68.29233333333335
 11
62.49999999999999
 21
68.29233333333335
 72
     1
 10
62.49999999999999
 20
68.29233333333335
 11
62.49999999999999
 21
91.79233333333333
 72
     1
 10
62.49999999999999
 20
91.79233333333333
 11
97.50000000000001
 21
91.79233333333333
 97
        0
 75
     0
 76
     1
 98
        0
  0
LWPOLYLINE
  5
6A
330
1F
100
AcDbEntity
  8
0
  6
Continuous
 62
    18
420
        0
370
     9
100
AcDbPolyline
 90
        5
 70
     1
 43
0.0
 10
97.50000000000001
 20
91.79233333333333
 10
97.50000000000001
 20
68.29233333333335
 10
62.49999999999999
 20
68.29233333333335
 10
62.49999999999999
 20
91.79233333333333
 10
97.50000000000001
 20
91.79233333333333
  0
HATCH
  5
6B
330
1F
100
AcDbEntity
  8
0
 62
     7
420
 15461355
440
 33554687
100
AcDbHatch
 10
0.0
 20
0.0
 30
0.0
210
0.0
220
0.0
230
1.0
  2
SOLID
 70
     1
 71
     1
 91
        1
 92
        0
 93
        4
 72
     1
 10
107.0
 20
27.04233333333337
 11
107.0
 21
13.04233333333335
 72
     1
 10
107.0
 20
13.04233333333335
 11
93.00000000000001
 21
13.04233333333335
 72
     1
 10
93.00000000000001
 20
13.04233333333335
 11
93.00000000000001
 21
27.04233333333337
 72
     1
 10
93.00000000000001
 20
27.04233333333337
 11
107.0
 21
27.04233333333337
 97
        0
 75
     0
 76
     1
 98
        0
  0
LWPOLYLINE
  5
6C
330
1F
100
AcDbEntity
  8
0
  6
Continuous
 62
    18
420
        0
370
     9
100
AcDbPolyline
 90
        5
 70
     1
 43
0.0
 10
107.0
 20
27.04233333333337
 10
107.0
 20
13.04233333333335
 10
93.00000000000001
 20
13.04233333333335
 10
93.00000000000001
 20
27.04233333333337
 10
107.0
 20
27.04233333333337
  0
HATCH
  5
6D
330
1F
100
AcDbEntity
  8
0
 62
     7
420
 15461355
440
 33554687
100
AcDbHatch
 10
0.0
 20
0.0
 30
0.0
210
0.0
220
0.0
230
1.0
  2
SOLID
 70
     1
 71
     1
 91
        1
 92
        0
 93
        4
 72
     1
 10
127.0
 20
57.04233333333332
 11
127.0
 21
43.04233333333335
 72
     1
 10
127.0
 20
43.04233333333335
 11
113.0
 21
43.04233333333335
 72
     1
 10
113.0
 20
43.04233333333335
 11
113.0
 21
57.04233333333332
 72
     1
 10
113.0
 20
57.04233333333332
 11
127.0
 21
57.04233333333332
 97
        0
 75
     0
 76
     1
 98
        0
  0
LWPOLYLINE
  5
6E
330
1F
100
AcDbEntity
  8
0
  6
Continuous
 62
    18
420
        0
370
     9
100
AcDbPolyline
 90
        5
 70
     1
 43
0.0
 10
127.0
 20
57.04233333333332
 10
127.0
 20
43.04233333333335
 10
113.0
 20
43.04233333333335
 10
113.0
 20
57.04233333333332
 10
127.0
 20
57.04233333333332
  0
HATCH
  5
6F
330
1F
100
AcDbEntity
  8
0
 62
     7
420
 15461355
440
 33554687
100
AcDbHatch
 10
0.0
 20
0.0
 30
0.0
210
0.0
220
0.0
230
1.0
  2
SOLID
 70
     1
 71
     1
 91
        1
 92
        0
 93
        4
 72
     1
 10
127.0
 20
27.0423333333334
 11
127.0
 21
13.0423333333334
 72
     1
 10
127.0
 20
13.0423333333334
 11
113.0
 21
13.0423333333334
 72
     1
 10
113.0
 20
13.0423333333334
 11
113.0
 21
27.0423333333334
 72
     1
 10
113.0
 20
27.0423333333334
 11
127.0
 21
27.0423333333334
 97
        0
 75
     0
 76
     1
 98
        0
  0
LWPOLYLINE
  5
70
330
1F
100
AcDbEntity
  8
0
  6
Continuous
 62
    18
420
        0
370
     9
100
AcDbPolyline
 90
        5
 70
     1
 43
0.0
 10
127.0
 20
27.0423333333334
 10
127.0
 20
13.0423333333334
 10
113.0
 20
13.0423333333334
 10
113.0
 20
27.0423333333334
 10
127.0
 20
27.0423333333334
  0
HATCH
  5
71
330
1F
100
AcDbEntity
  8
0
 62
     7
420
 15461355
440
 33554687
100
AcDbHatch
 10
0.0
 20
0.0
 30
0.0
210
0.0
220
0.0
230
1.0
  2
SOLID
 70
     1
 71
     1
 91
        1
 92
        0
 93
        4
 72
     1
 10
147.0
 20
57.04233333333332
 11
147.0
 21
43.04233333333335
 72
     1
 10
147.0
 20
43.04233333333335
 11
133.0
 21
43.04233333333335
 72
     1
 10
133.0
 20
43.04233333333335
 11
133.0
 21
57.04233333333332
 72
     1
 10
133.0
 20
57.04233333333332
 11
147.0
 21
57.04233333333332
 97
        0
 75
     0
 76
     1
 98
        0
  0
LWPOLYLINE
  5
72
330
1F
100
AcDbEntity
  8
0
  6
Continuous
 62
    18
420
        0
370
     9
100
AcDbPolyline
 90
        5
 70
     1
 43
0.0
 10
147.0
 20
57.04233333333332
 10
147.0
 20
43.04233333333335
 10
133.0
 20
43.04233333333335
 10
133.0
 20
57.04233333333332
 10
147.0
 20
57.04233333333332
  0
HATCH
  5
73
330
1F
100
AcDbEntity
  8
0
 62
     7
420
 15461355
440
 33554687
100
AcDbHatch
 10
0.0
 20
0.0
 30
0.0
210
0.0
220
0.0
230
1.0
  2
SOLID
 70
     1
 71
     1
 91
        1
 92
        0
 93
        4
 72
     1
 10
137.0
 20
87.04233333333332
 11
137.0
 21
73.04233333333335
 72
     1
 10
137.0
 20
73.04233333333335
 11
123.0
 21
73.04233333333335
 72
     1
 10
123.0
 20
73.04233333333335
 11
123.0
 21
87.04233333333332
 72
     1
 10
123.0
 20
87.04233333333332
 11
137.0
 21
87.04233333333332
 97
        0
 75
     0
 76
     1
 98
        0
  0
LWPOLYLINE
  5
74
330
1F
100
AcDbEntity
  8
0
  6
Continuous
 62
    18
420
        0
370
     9
100
AcDbPolyline
 90
        5
 70
     1
 43
0.0
 10
137.0
 20
87.04233333333332
 10
137.0
 20
73.04233333333335
 10
123.0
 20
73.04233333333335
 10
123.0
 20
87.04233333333332
 10
137.0
 20
87.04233333333332
  0
HATCH
  5
75
330
1F
100
AcDbEntity
  8
0
 62
     7
420
 15461355
440
 33554687
100
AcDbHatch
 10
0.0
 20
0.0
 30
0.0
210
0.0
220
0.0
230
1.0
  2
SOLID
 70
     1
 71
     1
 91
        1
 92
        0
 93
        4
 72
     1
 10
147.0
 20
27.04233333333337
 11
147.0
 21
13.04233333333335
 72
     1
 10
147.0
 20
13.04233333333335
 11
133.0
 21
13.04233333333335
 72
     1
 10
133.0
 20
13.04233333333335
 11
133.0
 21
27.04233333333337
 72
     1
 10
133.0
 20
27.04233333333337
 11
147.0
 21
27.04233333333337
 97
        0
 75
     0
 76
     1
 98
        0
  0
LWPOLYLINE
  5
76
330
1F
100
AcDbEntity
  8
0
  6
Continuous
 62
    18
420
        0
370
     9
100
AcDbPolyline
 90
        5
 70
     1
 43
0.0
 10
147.0
 20
27.04233333333337
 10
147.0
 20
13.04233333333335
 10
133.0
 20
13.04233333333335
 10
133.0
 20
27.04233333333337
 10
147.0
 20
27.04233333333337
  0
HATCH
  5
77
330
1F
100
AcDbEntity
  8
0
 62
     7
420
 15461355
440
 33554687
100
AcDbHatch
 10
0.0
 20
0.0
 30
0.0
210
0.0
220
0.0
230
1.0
  2
SOLID
 70
     1
 71
     1
 91
        1
 92
        0
 93
        4
 72
     1
 10
167.0
 20
57.04233333333332
 11
167.0
 21
43.04233333333335
 72
     1
 10
167.0
 20
43.04233333333335
 11
153.0
 21
43.04233333333335
 72
     1
 10
153.0
 20
43.04233333333335
 11
153.0
 21
57.04233333333332
 72
     1
 10
153.0
 20
57.04233333333332
 11
167.0
 21
57.04233333333332
 97
        0
 75
     0
 76
     1
 98
        0
  0
LWPOLYLINE
  5
78
330
1F
100
AcDbEntity
  8
0
  6
Continuous
 62
    18
420
        0
370
     9
100
AcDbPolyline
 90
        5
 70
     1
 43
0.0
 10
167.0
 20
57.04233333333332
 10
167.0
 20
43.04233333333335
 10
153.0
 20
43.04233333333335
 10
153.0
 20
57.04233333333332
 10
167.0
 20
57.04233333333332
  0
HATCH
  5
79
330
1F
100
AcDbEntity
  8
0
 62
     7
420
 15461355
440
 33554687
100
AcDbHatch
 10
0.0
 20
0.0
 30
0.0
210
0.0
220
0.0
230
1.0
  2
SOLID
 70
     1
 71
     1
 91
        1
 92
        0
 93
        4
 72
     1
 10
177.0
 20
87.04233333333332
 11
177.0
 21
73.04233333333335
 72
     1
 10
177.0
 20
73.04233333333335
 11
163.0
 21
73.04233333333335
 72
     1
 10
163.0
 20
73.04233333333335
 11
163.0
 21
87.04233333333332
 72
     1
 10
163.0
 20
87.04233333333332
 11
177.0
 21
87.04233333333332
 97
        0
 75
     0
 76
     1
 98
        0
  0
LWPOLYLINE
  5
7A
330
1F
100
AcDbEntity
  8
0
  6
Continuous
 62
    18
420
        0
370
     9
100
AcDbPolyline
 90
        5
 70
     1
 43
0.0
 10
177.0
 20
87.04233333333332
 10
177.0
 20
73.04233333333335
 10
163.0
 20
73.04233333333335
 10
163.0
 20
87.04233333333332
 10
177.0
 20
87.04233333333332
  0
HATCH
  5
7B
330
1F
100
AcDbEntity
  8
0
 62
     7
420
 15461355
440
 33554687
100
AcDbHatch
 10
0.0
 20
0.0
 30
0.0
210
0.0
220
0.0
230
1.0
  2
SOLID
 70
     1
 71
     1
 91
        1
 92
        0
 93
        4
 72
     1
 10
167.0
 20
27.04233333333337
 11
167.0
 21
13.04233333333335
 72
     1
 10
167.0
 20
13.04233333333335
 11
153.0
 21
13.04233333333335
 72
     1
 10
153.0
 20
13.04233333333335
 11
153.0
 21
27.04233333333337
 72
     1
 10
153.0
 20
27.04233333333337
 11
167.0
 21
27.04233333333337
 97
        0
 75
     0
 76
     1
 98
        0
  0
LWPOLYLINE
  5
7C
330
1F
100
AcDbEntity
  8
0
  6
Continuous
 62
    18
420
        0
370
     9
100
AcDbPolyline
 90
        5
 70
     1
 43
0.0
 10
167.0
 20
27.04233333333337
 10
167.0
 20
13.04233333333335
 10
153.0
 20
13.04233333333335
 10
153.0
 20
27.04233333333337
 10
167.0
 20
27.04233333333337
  0
HATCH
  5
7D
330
1F
100
AcDbEntity
  8
0
 62
     7
420
 15461355
440
 33554687
100
AcDbHatch
 10
0.0
 20
0.0
 30
0.0
210
0.0
220
0.0
230
1.0
  2
SOLID
 70
     1
 71
     1
 91
        1
 92
        0
 93
        4
 72
     1
 10
187.0
 20
57.04233333333332
 11
187.0
 21
43.04233333333335
 72
     1
 10
187.0
 20
43.04233333333335
 11
173.0
 21
43.04233333333335
 72
     1
 10
173.0
 20
43.04233333333335
 11
173.0
 21
57.04233333333332
 72
     1
 10
173.0
 20
57.04233333333332
 11
187.0
 21
57.04233333333332
 97
        0
 75
     0
 76
     1
 98
        0
  0
LWPOLYLINE
  5
7E
330
1F
100
AcDbEntity
  8
0
  6
Continuous
 62
    18
420
        0
370
     9
100
AcDbPolyline
 90
        5
 70
     1
 43
0.0
 10
187.0
 20
57.04233333333332
 10
187.0
 20
43.04233333333335
 10
173.0
 20
43.04233333333335
 10
173.0
 20
57.04233333333332
 10
187.0
 20
57.04233333333332
  0
HATCH
  5
7F
330
1F
100
AcDbEntity
  8
0
 62
     7
420
 15461355
440
 33554687
100
AcDbHatch
 10
0.0
 20
0.0
 30
0.0
210
0.0
220
0.0
230
1.0
  2
SOLID
 70
     1
 71
     1
 91
        1
 92
        0
 93
        4
 72
     1
 10
187.0
 20
27.04233333333337
 11
187.0
 21
13.04233333333335
 72
     1
 10
187.0
 20
13.04233333333335
 11
173.0
 21
13.04233333333335
 72
     1
 10
173.0
 20
13.04233333333335
 11
173.0
 21
27.04233333333337
 72
     1
 10
173.0
 20
27.04233333333337
 11
187.0
 21
27.04233333333337
 97
        0
 75
     0
 76
     1
 98
        0
  0
LWPOLYLINE
  5
80
330
1F
100
AcDbEntity
  8
0
  6
Continuous
 62
    18
420
        0
370
     9
100
AcDbPolyline
 90
        5
 70
     1
 43
0.0
 10
187.0
 20
27.04233333333337
 10
187.0
 20
13.04233333333335
 10
173.0
 20
13.04233333333335
 10
173.0
 20
27.04233333333337
 10
187.0
 20
27.04233333333337
  0
HATCH
  5
81
330
1F
100
AcDbEntity
  8
0
 62
     7
420
 15461355
440
 33554687
100
AcDbHatch
 10
0.0
 20
0.0
 30
0.0
210
0.0
220
0.0
230
1.0
  2
SOLID
 70
     1
 71
     1
 91
        1
 92
        0
 93
        4
 72
     1
 10
207.0
 20
57.04233333333332
 11
207.0
 21
43.04233333333335
 72
     1
 10
207.0
 20
43.04233333333335
 11
193.0
 21
43.04233333333335
 72
     1
 10
193.0
 20
43.04233333333335
 11
193.0
 21
57.04233333333332
 72
     1
 10
193.0
 20
57.04233333333332
 11
207.0
 21
57.04233333333332
 97
        0
 75
     0
 76
     1
 98
        0
  0
LWPOLYLINE
  5
82
330
1F
100
AcDbEntity
  8
0
  6
Continuous
 62
    18
420
        0
370
     9
100
AcDbPolyline
 90
        5
 70
     1
 43
0.0
 10
207.0
 20
57.04233333333332
 10
207.0
 20
43.04233333333335
 10
193.0
 20
43.04233333333335
 10
193.0
 20
57.04233333333332
 10
207.0
 20
57.04233333333332
  0
HATCH
  5
83
330
1F
100
AcDbEntity
  8
0
 62
     7
420
 15461355
440
 33554687
100
AcDbHatch
 10
0.0
 20
0.0
 30
0.0
210
0.0
220
0.0
230
1.0
  2
SOLID
 70
     1
 71
     1
 91
        1
 92
        0
 93
        4
 72
     1
 10
207.0
 20
27.0423333333334
 11
207.0
 21
13.0423333333334
 72
     1
 10
207.0
 20
13.0423333333334
 11
193.0
 21
13.0423333333334
 72
     1
 10
193.0
 20
13.0423333333334
 11
193.0
 21
27.0423333333334
 72
     1
 10
193.0
 20
27.0423333333334
 11
207.0
 21
27.0423333333334
 97
        0
 75
     0
 76
     1
 98
        0
  0
LWPOLYLINE
  5
84
330
1F
100
AcDbEntity
  8
0
  6
Continuous
 62
    18
420
        0
370
     9
100
AcDbPolyline
 90
        5
 70
     1
 43
0.0
 10
207.0
 20
27.0423333333334
 10
207.0
 20
13.0423333333334
 10
193.0
 20
13.0423333333334
 10
193.0
 20
27.0423333333334
 10
207.0
 20
27.0423333333334
  0
HATCH
  5
85
330
1F
100
AcDbEntity
  8
0
 62
     7
420
 15461355
440
 33554687
100
AcDbHatch
 10
0.0
 20
0.0
 30
0.0
210
0.0
220
0.0
230
1.0
  2
SOLID
 70
     1
 71
     1
 91
        1
 92
        0
 93
        4
 72
     1
 10
227.0
 20
57.04233333333332
 11
227.0
 21
43.04233333333335
 72
     1
 10
227.0
 20
43.04233333333335
 11
213.0
 21
43.04233333333335
 72
     1
 10
213.0
 20
43.04233333333335
 11
213.0
 21
57.04233333333332
 72
     1
 10
213.0
 20
57.04233333333332
 11
227.0
 21
57.04233333333332
 97
        0
 75
     0
 76
     1
 98
        0
  0
LWPOLYLINE
  5
86
330
1F
100
AcDbEntity
  8
0
  6
Continuous
 62
    18
420
        0
370
     9
100
AcDbPolyline
 90
        5
 70
     1
 43
0.0
 10
227.0
 20
57.04233333333332
 10
227.0
 20
43.04233333333335
 10
213.0
 20
43.04233333333335
 10
213.0
 20
57.04233333333332
 10
227.0
 20
57.04233333333332
  0
HATCH
  5
87
330
1F
100
AcDbEntity
  8
0
 62
     7
420
 15461355
440
 33554687
100
AcDbHatch
 10
0.0
 20
0.0
 30
0.0
210
0.0
220
0.0
230
1.0
  2
SOLID
 70
     1
 71
     1
 91
        1
 92
        0
 93
        4
 72
     1
 10
227.0
 20
27.04233333333337
 11
227.0
 21
13.04233333333335
 72
     1
 10
227.0
 20
13.04233333333335
 11
213.0
 21
13.04233333333335
 72
     1
 10
213.0
 20
13.04233333333335
 11
213.0
 21
27.04233333333337
 72
     1
 10
213.0
 20
27.04233333333337
 11
227.0
 21
27.04233333333337
 97
        0
 75
     0
 76
     1
 98
        0
  0
LWPOLYLINE
  5
88
330
1F
100
AcDbEntity
  8
0
  6
Continuous
 62
    18
420
        0
370
     9
100
AcDbPolyline
 90
        5
 70
     1
 43
0.0
 10
227.0
 20
27.04233333333337
 10
227.0
 20
13.04233333333335
 10
213.0
 20
13.04233333333335
 10
213.0
 20
27.04233333333337
 10
227.0
 20
27.04233333333337
  0
HATCH
  5
89
330
1F
100
AcDbEntity
  8
0
 62
     7
420
 15461355
440
 33554687
100
AcDbHatch
 10
0.0
 20
0.0
 30
0.0
210
0.0
220
0.0
230
1.0
  2
SOLID
 70
     1
 71
     1
 91
        1
 92
        0
 93
        4
 72
     1
 10
247.0
 20
57.04233333333332
 11
247.0
 21
43.04233333333335
 72
     1
 10
247.0
 20
43.04233333333335
 11
233.0
 21
43.04233333333335
 72
     1
 10
233.0
 20
43.04233333333335
 11
233.0
 21
57.04233333333332
 72
     1
 10
233.0
 20
57.04233333333332
 11
247.0
 21
57.04233333333332
 97
        0
 75
     0
 76
     1
 98
        0
  0
LWPOLYLINE
  5
8A
330
1F
100
AcDbEntity
  8
0
  6
Continuous
 62
    18
420
        0
370
     9
100
AcDbPolyline
 90
        5
 70
     1
 43
0.0
 10
247.0
 20
57.04233333333332
 10
247.0
 20
43.04233333333335
 10
233.0
 20
43.04233333333335
 10
233.0
 20
57.04233333333332
 10
247.0
 20
57.04233333333332
  0
HATCH
  5
8B
330
1F
100
AcDbEntity
  8
0
 62
     7
420
 15461355
440
 33554687
100
AcDbHatch
 10
0.0
 20
0.0
 30
0.0
210
0.0
220
0.0
230
1.0
  2
SOLID
 70
     1
 71
     1
 91
        1
 92
        0
 93
        4
 72
     1
 10
247.0000000000001
 20
27.04233333333337
 11
247.0000000000001
 21
13.04233333333335
 72
     1
 10
247.0000000000001
 20
13.04233333333335
 11
233.0
 21
13.04233333333335
 72
     1
 10
233.0
 20
13.04233333333335
 11
233.0
 21
27.04233333333337
 72
     1
 10
233.0
 20
27.04233333333337
 11
247.0000000000001
 21
27.04233333333337
 97
        0
 75
     0
 76
     1
 98
        0
  0
LWPOLYLINE
  5
8C
330
1F
100
AcDbEntity
  8
0
  6
Continuous
 62
    18
420
        0
370
     9
100
AcDbPolyline
 90
        5
 70
     1
 43
0.0
 10
247.0000000000001
 20
27.04233333333337
 10
247.0000000000001
 20
13.04233333333335
 10
233.0
 20
13.04233333333335
 10
233.0
 20
27.04233333333337
 10
247.0000000000001
 20
27.04233333333337
  0
HATCH
  5
8D
330
1F
100
AcDbEntity
  8
0
 62
     7
420
 15461355
440
 33554687
100
AcDbHatch
 10
0.0
 20
0.0
 30
0.0
210
0.0
220
0.0
230
1.0
  2
SOLID
 70
     1
 71
     1
 91
        1
 92
        0
 93
        4
 72
     1
 10
267.0
 20
57.04233333333332
 11
267.0
 21
43.04233333333335
 72
     1
 10
267.0
 20
43.04233333333335
 11
253.0
 21
43.04233333333335
 72
     1
 10
253.0
 20
43.04233333333335
 11
253.0
 21
57.04233333333332
 72
     1
 10
253.0
 20
57.04233333333332
 11
267.0
 21
57.04233333333332
 97
        0
 75
     0
 76
     1
 98
        0
  0
LWPOLYLINE
  5
8E
330
1F
100
AcDbEntity
  8
0
  6
Continuous
 62
    18
420
        0
370
     9
100
AcDbPolyline
 90
        5
 70
     1
 43
0.0
 10
267.0
 20
57.04233333333332
 10
267.0
 20
43.04233333333335
 10
253.0
 20
43.04233333333335
 10
253.0
 20
57.04233333333332
 10
267.0
 20
57.04233333333332
  0
HATCH
  5
8F
330
1F
100
AcDbEntity
  8
0
 62
     7
420
 15461355
440
 33554687
100
AcDbHatch
 10
0.0
 20
0.0
 30
0.0
210
0.0
220
0.0
230
1.0
  2
SOLID
 70
     1
 71
     1
 91
        1
 92
        0
 93
        4
 72
     1
 10
267.0000000000001
 20
27.04233333333337
 11
267.0000000000001
 21
13.04233333333335
 72
     1
 10
267.0000000000001
 20
13.04233333333335
 11
253.0
 21
13.04233333333335
 72
     1
 10
253.0
 20
13.04233333333335
 11
253.0
 21
27.04233333333337
 72
     1
 10
253.0
 20
27.04233333333337
 11
267.0000000000001
 21
27.04233333333337
 97
        0
 75
     0
 76
     1
 98
        0
  0
LWPOLYLINE
  5
90
330
1F
100
AcDbEntity
  8
0
  6
Continuous
 62
    18
420
        0
370
     9
100
AcDbPolyline
 90
        5
 70
     1
 43
0.0
 10
267.0000000000001
 20
27.04233333333337
 10
267.0000000000001
 20
13.04233333333335
 10
253.0
 20
13.04233333333335
 10
253.0
 20
27.04233333333337
 10
267.0000000000001
 20
27.04233333333337
  0
HATCH
  5
91
330
1F
100
AcDbEntity
  8
0
 62
     7
420
 15461355
440
 33554687
100
AcDbHatch
 10
0.0
 20
0.0
 30
0.0
210
0.0
220
0.0
230
1.0
  2
SOLID
 70
     1
 71
     1
 91
        1
 92
        0
 93
        4
 72
     1
 10
286.9999999999999
 20
57.04233333333332
 11
286.9999999999999
 21
43.04233333333335
 72
     1
 10
286.9999999999999
 20
43.04233333333335
 11
272.9999999999999
 21
43.04233333333335
 72
     1
 10
272.9999999999999
 20
43.04233333333335
 11
272.9999999999999
 21
57.04233333333332
 72
     1
 10
272.9999999999999
 20
57.04233333333332
 11
286.9999999999999
 21
57.04233333333332
 97
        0
 75
     0
 76
     1
 98
        0
  0
LWPOLYLINE
  5
92
330
1F
100
AcDbEntity
  8
0
  6
Continuous
 62
    18
420
        0
370
     9
100
AcDbPolyline
 90
        5
 70
     1
 43
0.0
 10
286.9999999999999
 20
57.04233333333332
 10
286.9999999999999
 20
43.04233333333335
 10
272.9999999999999
 20
43.04233333333335
 10
272.9999999999999
 20
57.04233333333332
 10
286.9999999999999
 20
57.04233333333332
  0
HATCH
  5
93
330
1F
100
AcDbEntity
  8
0
 62
     7
420
 15461355
440
 33554687
100
AcDbHatch
 10
0.0
 20
0.0
 30
0.0
210
0.0
220
0.0
230
1.0
  2
SOLID
 70
     1
 71
     1
 91
        1
 92
        0
 93
        4
 72
     1
 10
287.0000000000001
 20
27.04233333333337
 11
287.0000000000001
 21
13.04233333333335
 72
     1
 10
287.0000000000001
 20
13.04233333333335
 11
273.0000000000001
 21
13.04233333333335
 72
     1
 10
273.0000000000001
 20
13.04233333333335
 11
273.0000000000001
 21
27.04233333333337
 72
     1
 10
273.0000000000001
 20
27.04233333333337
 11
287.0000000000001
 21
27.04233333333337
 97
        0
 75
     0
 76
     1
 98
        0
  0
LWPOLYLINE
  5
94
330
1F
100
AcDbEntity
  8
0
  6
Continuous
 62
    18
420
        0
370
     9
100
AcDbPolyline
 90
        5
 70
     1
 43
0.0
 10
287.0000000000001
 20
27.04233333333337
 10
287.0000000000001
 20
13.04233333333335
 10
273.0000000000001
 20
13.04233333333335
 10
273.0000000000001
 20
27.04233333333337
 10
287.0000000000001
 20
27.04233333333337
  0
HATCH
  5
95
330
1F
100
AcDbEntity
  8
0
 62
     7
420
 15461355
440
 33554687
100
AcDbHatch
 10
0.0
 20
0.0
 30
0.0
210
0.0
220
0.0
230
1.0
  2
SOLID
 70
     1
 71
     1
 91
        1
 92
        0
 93
        4
 72
     1
 10
306.9999999999999
 20
57.04233333333332
 11
306.9999999999999
 21
43.04233333333335
 72
     1
 10
306.9999999999999
 20
43.04233333333335
 11
292.9999999999999
 21
43.04233333333335
 72
     1
 10
292.9999999999999
 20
43.04233333333335
 11
292.9999999999999
 21
57.04233333333332
 72
     1
 10
292.9999999999999
 20
57.04233333333332
 11
306.9999999999999
 21
57.04233333333332
 97
        0
 75
     0
 76
     1
 98
        0
  0
LWPOLYLINE
  5
96
330
1F
100
AcDbEntity
  8
0
  6
Continuous
 62
    18
420
        0
370
     9
100
AcDbPolyline
 90
        5
 70
     1
 43
0.0
 10
306.9999999999999
 20
57.04233333333332
 10
306.9999999999999
 20
43.04233333333335
 10
292.9999999999999
 20
43.04233333333335
 10
292.9999999999999
 20
57.04233333333332
 10
306.9999999999999
 20
57.04233333333332
  0
HATCH
  5
97
330
1F
100
AcDbEntity
  8
0
 62
     7
420
 15461355
440
 33554687
100
AcDbHatch
 10
0.0
 20
0.0
 30
0.0
210
0.0
220
0.0
230
1.0
  2
SOLID
 70
     1
 71
     1
 91
        1
 92
        0
 93
        4
 72
     1
 10
307.0000000000001
 20
27.04233333333337
 11
307.0000000000001
 21
13.04233333333335
 72
     1
 10
307.0000000000001
 20
13.04233333333335
 11
293.0000000000001
 21
13.04233333333335
 72
     1
 10
293.0000000000001
 20
13.04233333333335
 11
293.0000000000001
 21
27.04233333333337
 72
     1
 10
293.0000000000001
 20
27.04233333333337
 11
307.0000000000001
 21
27.04233333333337
 97
        0
 75
     0
 76
     1
 98
        0
  0
LWPOLYLINE
  5
98
330
1F
100
AcDbEntity
  8
0
  6
Continuous
 62
    18
420
        0
370
     9
100
AcDbPolyline
 90
        5
 70
     1
 43
0.0
 10
307.0000000000001
 20
27.04233333333337
 10
307.0000000000001
 20
13.04233333333335
 10
293.0000000000001
 20
13.04233333333335
 10
293.0000000000001
 20
27.04233333333337
 10
307.0000000000001
 20
27.04233333333337
  0
HATCH
  5
99
330
1F
100
AcDbEntity
  8
0
 62
     7
420
 15461355
440
 33554687
100
AcDbHatch
 10
0.0
 20
0.0
 30
0.0
210
0.0
220
0.0
230
1.0
  2
SOLID
 70
     1
 71
     1
 91
        1
 92
        0
 93
        4
 72
     1
 10
326.9999999999999
 20
57.04233333333332
 11
326.9999999999999
 21
43.04233333333335
 72
     1
 10
326.9999999999999
 20
43.04233333333335
 11
312.9999999999999
 21
43.04233333333335
 72
     1
 10
312.9999999999999
 20
43.04233333333335
 11
312.9999999999999
 21
57.04233333333332
 72
     1
 10
312.9999999999999
 20
57.04233333333332
 11
326.9999999999999
 21
57.04233333333332
 97
        0
 75
     0
 76
     1
 98
        0
  0
LWPOLYLINE
  5
9A
330
1F
100
AcDbEntity
  8
0
  6
Continuous
 62
    18
420
        0
370
     9
100
AcDbPolyline
 90
        5
 70
     1
 43
0.0
 10
326.9999999999999
 20
57.04233333333332
 10
326.9999999999999
 20
43.04233333333335
 10
312.9999999999999
 20
43.04233333333335
 10
312.9999999999999
 20
57.04233333333332
 10
326.9999999999999
 20
57.04233333333332
  0
HATCH
  5
9B
330
1F
100
AcDbEntity
  8
0
 62
     7
420
 15461355
440
 33554687
100
AcDbHatch
 10
0.0
 20
0.0
 30
0.0
210
0.0
220
0.0
230
1.0
  2
SOLID
 70
     1
 71
     1
 91
        1
 92
        0
 93
        4
 72
     1
 10
327.0000000000001
 20
27.04233333333337
 11
327.0000000000001
 21
13.04233333333335
 72
     1
 10
327.0000000000001
 20
13.04233333333335
 11
313.0
 21
13.04233333333335
 72
     1
 10
313.0
 20
13.04233333333335
 11
313.0
 21
27.04233333333337
 72
     1
 10
313.0
 20
27.04233333333337
 11
327.0000000000001
 21
27.04233333333337
 97
        0
 75
     0
 76
     1
 98
        0
  0
LWPOLYLINE
  5
9C
330
1F
100
AcDbEntity
  8
0
  6
Continuous
 62
    18
420
        0
370
     9
100
AcDbPolyline
 90
        5
 70
     1
 43
0.0
 10
327.0000000000001
 20
27.04233333333337
 10
327.0000000000001
 20
13.04233333333335
 10
313.0
 20
13.04233333333335
 10
313.0
 20
27.04233333333337
 10
327.0000000000001
 20
27.04233333333337
  0
HATCH
  5
9D
330
1F
100
AcDbEntity
  8
0
 62
     7
420
 15461355
440
 33554687
100
AcDbHatch
 10
0.0
 20
0.0
 30
0.0
210
0.0
220
0.0
230
1.0
  2
SOLID
 70
     1
 71
     1
 91
        1
 92
        0
 93
        4
 72
     1
 10
346.9999999999999
 20
57.04233333333332
 11
346.9999999999999
 21
43.04233333333335
 72
     1
 10
346.9999999999999
 20
43.04233333333335
 11
332.9999999999999
 21
43.04233333333335
 72
     1
 10
332.9999999999999
 20
43.04233333333335
 11
332.9999999999999
 21
57.04233333333332
 72
     1
 10
332.9999999999999
 20
57.04233333333332
 11
346.9999999999999
 21
57.04233333333332
 97
        0
 75
     0
 76
     1
 98
        0
  0
LWPOLYLINE
  5
9E
330
1F
100
AcDbEntity
  8
0
  6
Continuous
 62
    18
420
        0
370
     9
100
AcDbPolyline
 90
        5
 70
     1
 43
0.0
 10
346.9999999999999
 20
57.04233333333332
 10
346.9999999999999
 20
43.04233333333335
 10
332.9999999999999
 20
43.04233333333335
 10
332.9999999999999
 20
57.04233333333332
 10
346.9999999999999
 20
57.04233333333332
  0
HATCH
  5
9F
330
1F
100
AcDbEntity
  8
0
 62
     7
420
 15461355
440
 33554687
100
AcDbHatch
 10
0.0
 20
0.0
 30
0.0
210
0.0
220
0.0
230
1.0
  2
SOLID
 70
     1
 71
     1
 91
        1
 92
        0
 93
        4
 72
     1
 10
366.9999999999999
 20
57.04233333333332
 11
366.9999999999999
 21
43.04233333333335
 72
     1
 10
366.9999999999999
 20
43.04233333333335
 11
352.9999999999999
 21
43.04233333333335
 72
     1
 10
352.9999999999999
 20
43.04233333333335
 11
352.9999999999999
 21
57.04233333333332
 72
     1
 10
352.9999999999999
 20
57.04233333333332
 11
366.9999999999999
 21
57.04233333333332
 97
        0
 75
     0
 76
     1
 98
        0
  0
LWPOLYLINE
  5
A0
330
1F
100
AcDbEntity
  8
0
  6
Continuous
 62
    18
420
        0
370
     9
100
AcDbPolyline
 90
        5
 70
     1
 43
0.0
 10
366.9999999999999
 20
57.04233333333332
 10
366.9999999999999
 20
43.04233333333335
 10
352.9999999999999
 20
43.04233333333335
 10
352.9999999999999
 20
57.04233333333332
 10
366.9999999999999
 20
57.04233333333332
  0
HATCH
  5
A1
330
1F
100
AcDbEntity
  8
0
 62
     7
420
 15461355
440
 33554687
100
AcDbHatch
 10
0.0
 20
0.0
 30
0.0
210
0.0
220
0.0
230
1.0
  2
SOLID
 70
     1
 71
     1
 91
        1
 92
        0
 93
        4
 72
     1
 10
347.0000000000001
 20
27.04233333333337
 11
347.0000000000001
 21
13.04233333333335
 72
     1
 10
347.0000000000001
 20
13.04233333333335
 11
333.0
 21
13.04233333333335
 72
     1
 10
333.0
 20
13.04233333333335
 11
333.0
 21
27.04233333333337
 72
     1
 10
333.0
 20
27.04233333333337
 11
347.0000000000001
 21
27.04233333333337
 97
        0
 75
     0
 76
     1
 98
        0
  0
LWPOLYLINE
  5
A2
330
1F
100
AcDbEntity
  8
0
  6
Continuous
 62
    18
420
        0
370
     9
100
AcDbPolyline
 90
        5
 70
     1
 43
0.0
 10
347.0000000000001
 20
27.04233333333337
 10
347.0000000000001
 20
13.04233333333335
 10
333.0
 20
13.04233333333335
 10
333.0
 20
27.04233333333337
 10
347.0000000000001
 20
27.04233333333337
  0
HATCH
  5
A3
330
1F
100
AcDbEntity
  8
0
 62
     7
420
 15461355
440
 33554687
100
AcDbHatch
 10
0.0
 20
0.0
 30
0.0
210
0.0
220
0.0
230
1.0
  2
SOLID
 70
     1
 71
     1
 91
        1
 92
        0
 93
        4
 72
     1
 10
367.0000000000001
 20
27.0423333333334
 11
367.0000000000001
 21
13.0423333333334
 72
     1
 10
367.0000000000001
 20
13.0423333333334
 11
353.0000000000001
 21
13.0423333333334
 72
     1
 10
353.0000000000001
 20
13.0423333333334
 11
353.0000000000001
 21
27.0423333333334
 72
     1
 10
353.0000000000001
 20
27.0423333333334
 11
367.0000000000001
 21
27.0423333333334
 97
        0
 75
     0
 76
     1
 98
        0
  0
LWPOLYLINE
  5
A4
330
1F
100
AcDbEntity
  8
0
  6
Continuous
 62
    18
420
        0
370
     9
100
AcDbPolyline
 90
        5
 70
     1
 43
0.0
 10
367.0000000000001
 20
27.0423333333334
 10
367.0000000000001
 20
13.0423333333334
 10
353.0000000000001
 20
13.0423333333334
 10
353.0000000000001
 20
27.0423333333334
 10
367.0000000000001
 20
27.0423333333334
  0
HATCH
  5
A5
330
1F
100
AcDbEntity
  8
0
 62
     7
420
 15461355
440
 33554687
100
AcDbHatch
 10
0.0
 20
0.0
 30
0.0
210
0.0
220
0.0
230
1.0
  2
SOLID
 70
     1
 71
     1
 91
        1
 92
        0
 93
        1
 72
     4
 94
        3
 73
     0
 74
     1
 95
       17
 96
       13
 40
0.0
 40
0.0
 40
0.0
 40
0.0
 40
1.0
 40
1.0
 40
1.0
 40
2.0
 40
2.0
 40
2.0
 40
3.0
 40
3.0
 40
3.0
 40
4.0
 40
4.0
 40
4.0
 40
4.0
 10
59.99999999999999
 20
36.61877772209348
 10
60.88306403919039
 20
36.61877772209348
 10
61.59999999999999
 20
35.90184176128386
 10
61.59999999999999
 20
35.01877772209346
 10
61.59999999999999
 20
34.13571368290306
 10
60.88306403919039
 20
33.41877772209347
 10
59.99999999999999
 20
33.41877772209347
 10
59.11693596080959
 20
33.41877772209347
 10
58.39999999999998
 20
34.13571368290306
 10
58.39999999999998
 20
35.01877772209346
 10
58.39999999999998
 20
35.90184176128386
 10
59.11693596080959
 20
36.61877772209348
 10
59.99999999999999
 20
36.61877772209348
 97
        0
 97
        0
 75
     0
 76
     1
 98
        0
  0
SPLINE
  5
A6
330
1F
100
AcDbEntity
  8
0
  6
Continuous
 62
    18
420
        0
370
     9
100
AcDbSpline
210
0.0
220
0.0
230
1.0
 70
    11
 71
     3
 72
    17
 73
    13
 74
     0
 42
0.000000001
 43
0.0
 40
0.0
 40
0.0
 40
0.0
 40
0.0
 40
1.0
 40
1.0
 40
1.0
 40
2.0
 40
2.0
 40
2.0
 40
3.0
 40
3.0
 40
3.0
 40
4.0
 40
4.0
 40
4.0
 40
4.0
 10
59.99999999999999
 20
36.61877772209348
 30
0.0
 10
60.88306403919039
 20
36.61877772209348
 30
0.0
 10
61.59999999999999
 20
35.90184176128386
 30
0.0
 10
61.59999999999999
 20
35.01877772209346
 30
0.0
 10
61.59999999999999
 20
34.13571368290306
 30
0.0
 10
60.88306403919039
 20
33.41877772209347
 30
0.0
 10
59.99999999999999
 20
33.41877772209347
 30
0.0
 10
59.11693596080959
 20
33.41877772209347
 30
0.0
 10
58.39999999999998
 20
34.13571368290306
 30
0.0
 10
58.39999999999998
 20
35.01877772209346
 30
0.0
 10
58.39999999999998
 20
35.90184176128386
 30
0.0
 10
59.11693596080959
 20
36.61877772209348
 30
0.0
 10
59.99999999999999
 20
36.61877772209348
 30
0.0
  0
HATCH
  5
A7
330
1F
100
AcDbEntity
  8
0
 62
     7
420
 15461355
440
 33554687
100
AcDbHatch
 10
0.0
 20
0.0
 30
0.0
210
0.0
220
0.0
230
1.0
  2
SOLID
 70
     1
 71
     1
 91
        1
 92
        0
 93
        1
 72
     4
 94
        3
 73
     0
 74
     1
 95
       17
 96
       13
 40
0.0
 40
0.0
 40
0.0
 40
0.0
 40
1.0
 40
1.0
 40
1.0
 40
2.0
 40
2.0
 40
2.0
 40
3.0
 40
3.0
 40
3.0
 40
4.0
 40
4.0
 40
4.0
 40
4.0
 10
45.0
 20
91.7423333333333
 10
45.9382555416398
 20
91.7423333333333
 10
46.7
 20
90.9805888749731
 10
46.7
 20
90.0423333333333
 10
46.7
 20
89.1040777916935
 10
45.9382555416398
 20
88.34233333333331
 10
45.0
 20
88.34233333333331
 10
44.0617444583602
 20
88.34233333333331
 10
43.3
 20
89.1040777916935
 10
43.3
 20
90.0423333333333
 10
43.3
 20
90.9805888749731
 10
44.0617444583602
 20
91.7423333333333
 10
45.0
 20
91.7423333333333
 97
        0
 97
        0
 75
     0
 76
     1
 98
        0
  0
SPLINE
  5
A8
330
1F
100
AcDbEntity
  8
0
  6
Continuous
 62
    18
420
        0
370
     9
100
AcDbSpline
210
0.0
220
0.0
230
1.0
 70
    11
 71
     3
 72
    17
 73
    13
 74
     0
 42
0.000000001
 43
0.0
 40
0.0
 40
0.0
 40
0.0
 40
0.0
 40
1.0
 40
1.0
 40
1.0
 40
2.0
 40
2.0
 40
2.0
 40
3.0
 40
3.0
 40
3.0
 40
4.0
 40
4.0
 40
4.0
 40
4.0
 10
45.0
 20
91.7423333333333
 30
0.0
 10
45.9382555416398
 20
91.7423333333333
 30
0.0
 10
46.7
 20
90.9805888749731
 30
0.0
 10
46.7
 20
90.0423333333333
 30
0.0
 10
46.7
 20
89.1040777916935
 30
0.0
 10
45.9382555416398
 20
88.34233333333331
 30
0.0
 10
45.0
 20
88.34233333333331
 30
0.0
 10
44.0617444583602
 20
88.34233333333331
 30
0.0
 10
43.3
 20
89.1040777916935
 30
0.0
 10
43.3
 20
90.0423333333333
 30
0.0
 10
43.3
 20
90.9805888749731
 30
0.0
 10
44.0617444583602
 20
91.7423333333333
 30
0.0
 10
45.0
 20
91.7423333333333
 30
0.0
  0
HATCH
  5
A9
330
1F
100
AcDbEntity
  8
0
 62
     7
420
 15461355
440
 33554687
100
AcDbHatch
 10
0.0
 20
0.0
 30
0.0
210
0.0
220
0.0
230
1.0
  2
SOLID
 70
     1
 71
     1
 91
        1
 92
        0
 93
        1
 72
     4
 94
        3
 73
     0
 74
     1
 95
       17
 96
       13
 40
0.0
 40
0.0
 40
0.0
 40
0.0
 40
1.0
 40
1.0
 40
1.0
 40
2.0
 40
2.0
 40
2.0
 40
3.0
 40
3.0
 40
3.0
 40
4.0
 40
4.0
 40
4.0
 40
4.0
 10
64.79767212393155
 20
96.49467260861454
 10
65.76352341679605
 20
96.49467260861454
 10
66.54767212393155
 20
95.71052390147902
 10
66.54767212393155
 20
94.74467260861452
 10
66.54767212393155
 20
93.77882131575004
 10
65.76352341679605
 20
92.99467260861454
 10
64.79767212393155
 20
92.99467260861454
 10
63.83182083106705
 20
92.99467260861454
 10
63.04767212393154
 20
93.77882131575004
 10
63.04767212393154
 20
94.74467260861452
 10
63.04767212393154
 20
95.71052390147902
 10
63.83182083106705
 20
96.49467260861454
 10
64.79767212393155
 20
96.49467260861454
 97
        0
 97
        0
 75
     0
 76
     1
 98
        0
  0
SPLINE
  5
AA
330
1F
100
AcDbEntity
  8
0
  6
Continuous
 62
    18
420
        0
370
     9
100
AcDbSpline
210
0.0
220
0.0
230
1.0
 70
    11
 71
     3
 72
    17
 73
    13
 74
     0
 42
0.000000001
 43
0.0
 40
0.0
 40
0.0
 40
0.0
 40
0.0
 40
1.0
 40
1.0
 40
1.0
 40
2.0
 40
2.0
 40
2.0
 40
3.0
 40
3.0
 40
3.0
 40
4.0
 40
4.0
 40
4.0
 40
4.0
 10
64.79767212393155
 20
96.49467260861454
 30
0.0
 10
65.76352341679605
 20
96.49467260861454
 30
0.0
 10
66.54767212393155
 20
95.71052390147902
 30
0.0
 10
66.54767212393155
 20
94.74467260861452
 30
0.0
 10
66.54767212393155
 20
93.77882131575004
 30
0.0
 10
65.76352341679605
 20
92.99467260861454
 30
0.0
 10
64.79767212393155
 20
92.99467260861454
 30
0.0
 10
63.83182083106705
 20
92.99467260861454
 30
0.0
 10
63.04767212393154
 20
93.77882131575004
 30
0.0
 10
63.04767212393154
 20
94.74467260861452
 30
0.0
 10
63.04767212393154
 20
95.71052390147902
 30
0.0
 10
63.83182083106705
 20
96.49467260861454
 30
0.0
 10
64.79767212393155
 20
96.49467260861454
 30
0.0
  0
HATCH
  5
AB
330
1F
100
AcDbEntity
  8
0
 62
     7
420
 15461355
440
 33554687
100
AcDbHatch
 10
0.0
 20
0.0
 30
0.0
210
0.0
220
0.0
230
1.0
  2
SOLID
 70
     1
 71
     1
 91
        1
 92
        0
 93
        1
 72
     4
 94
        3
 73
     0
 74
     1
 95
       17
 96
       13
 40
0.0
 40
0.0
 40
0.0
 40
0.0
 40
1.0
 40
1.0
 40
1.0
 40
2.0
 40
2.0
 40
2.0
 40
3.0
 40
3.0
 40
3.0
 40
4.0
 40
4.0
 40
4.0
 40
4.0
 10
95.07898928145472
 20
96.49467260861454
 10
96.04484057431924
 20
96.49467260861454
 10
96.82898928145474
 20
95.71052390147902
 10
96.82898928145474
 20
94.74467260861452
 10
96.82898928145474
 20
93.77882131575004
 10
96.04484057431924
 20
92.99467260861454
 10
95.07898928145472
 20
92.99467260861454
 10
94.11313798859024
 20
92.99467260861454
 10
93.32898928145472
 20
93.77882131575004
 10
93.32898928145472
 20
94.74467260861452
 10
93.32898928145472
 20
95.71052390147902
 10
94.11313798859024
 20
96.49467260861454
 10
95.07898928145472
 20
96.49467260861454
 97
        0
 97
        0
 75
     0
 76
     1
 98
        0
  0
SPLINE
  5
AC
330
1F
100
AcDbEntity
  8
0
  6
Continuous
 62
    18
420
        0
370
     9
100
AcDbSpline
210
0.0
220
0.0
230
1.0
 70
    11
 71
     3
 72
    17
 73
    13
 74
     0
 42
0.000000001
 43
0.0
 40
0.0
 40
0.0
 40
0.0
 40
0.0
 40
1.0
 40
1.0
 40
1.0
 40
2.0
 40
2.0
 40
2.0
 40
3.0
 40
3.0
 40
3.0
 40
4.0
 40
4.0
 40
4.0
 40
4.0
 10
95.07898928145472
 20
96.49467260861454
 30
0.0
 10
96.04484057431924
 20
96.49467260861454
 30
0.0
 10
96.82898928145474
 20
95.71052390147902
 30
0.0
 10
96.82898928145474
 20
94.74467260861452
 30
0.0
 10
96.82898928145474
 20
93.77882131575004
 30
0.0
 10
96.04484057431924
 20
92.99467260861454
 30
0.0
 10
95.07898928145472
 20
92.99467260861454
 30
0.0
 10
94.11313798859024
 20
92.99467260861454
 30
0.0
 10
93.32898928145472
 20
93.77882131575004
 30
0.0
 10
93.32898928145472
 20
94.74467260861452
 30
0.0
 10
93.32898928145472
 20
95.71052390147902
 30
0.0
 10
94.11313798859024
 20
96.49467260861454
 30
0.0
 10
95.07898928145472
 20
96.49467260861454
 30
0.0
  0
HATCH
  5
AD
330
1F
100
AcDbEntity
  8
0
 62
     7
420
 15461355
440
 33554687
100
AcDbHatch
 10
0.0
 20
0.0
 30
0.0
210
0.0
220
0.0
230
1.0
  2
SOLID
 70
     1
 71
     1
 91
        1
 92
        0
 93
        1
 72
     4
 94
        3
 73
     0
 74
     1
 95
       17
 96
       13
 40
0.0
 40
0.0
 40
0.0
 40
0.0
 40
1.0
 40
1.0
 40
1.0
 40
2.0
 40
2.0
 40
2.0
 40
3.0
 40
3.0
 40
3.0
 40
4.0
 40
4.0
 40
4.0
 40
4.0
 10
64.79767212393155
 20
67.39455766375366
 10
65.76352341679605
 20
67.39455766375366
 10
66.54767212393155
 20
66.61040895661813
 10
66.54767212393155
 20
65.64455766375366
 10
66.54767212393155
 20
64.67870637088916
 10
65.76352341679605
 20
63.89455766375366
 10
64.79767212393155
 20
63.89455766375366
 10
63.83182083106705
 20
63.89455766375366
 10
63.04767212393154
 20
64.67870637088916
 10
63.04767212393154
 20
65.64455766375366
 10
63.04767212393154
 20
66.61040895661813
 10
63.83182083106705
 20
67.39455766375366
 10
64.79767212393155
 20
67.39455766375366
 97
        0
 97
        0
 75
     0
 76
     1
 98
        0
  0
SPLINE
  5
AE
330
1F
100
AcDbEntity
  8
0
  6
Continuous
 62
    18
420
        0
370
     9
100
AcDbSpline
210
0.0
220
0.0
230
1.0
 70
    11
 71
     3
 72
    17
 73
    13
 74
     0
 42
0.000000001
 43
0.0
 40
0.0
 40
0.0
 40
0.0
 40
0.0
 40
1.0
 40
1.0
 40
1.0
 40
2.0
 40
2.0
 40
2.0
 40
3.0
 40
3.0
 40
3.0
 40
4.0
 40
4.0
 40
4.0
 40
4.0
 10
64.79767212393155
 20
67.39455766375366
 30
0.0
 10
65.76352341679605
 20
67.39455766375366
 30
0.0
 10
66.54767212393155
 20
66.61040895661813
 30
0.0
 10
66.54767212393155
 20
65.64455766375366
 30
0.0
 10
66.54767212393155
 20
64.67870637088916
 30
0.0
 10
65.76352341679605
 20
63.89455766375366
 30
0.0
 10
64.79767212393155
 20
63.89455766375366
 30
0.0
 10
63.83182083106705
 20
63.89455766375366
 30
0.0
 10
63.04767212393154
 20
64.67870637088916
 30
0.0
 10
63.04767212393154
 20
65.64455766375366
 30
0.0
 10
63.04767212393154
 20
66.61040895661813
 30
0.0
 10
63.83182083106705
 20
67.39455766375366
 30
0.0
 10
64.79767212393155
 20
67.39455766375366
 30
0.0
  0
HATCH
  5
AF
330
1F
100
AcDbEntity
  8
0
 62
     7
420
 15461355
440
 33554687
100
AcDbHatch
 10
0.0
 20
0.0
 30
0.0
210
0.0
220
0.0
230
1.0
  2
SOLID
 70
     1
 71
     1
 91
        1
 92
        0
 93
        1
 72
     4
 94
        3
 73
     0
 74
     1
 95
       17
 96
       13
 40
0.0
 40
0.0
 40
0.0
 40
0.0
 40
1.0
 40
1.0
 40
1.0
 40
2.0
 40
2.0
 40
2.0
 40
3.0
 40
3.0
 40
3.0
 40
4.0
 40
4.0
 40
4.0
 40
4.0
 10
95.07898928145472
 20
67.39455766375366
 10
96.04484057431924
 20
67.39455766375366
 10
96.82898928145474
 20
66.61040895661813
 10
96.82898928145474
 20
65.64455766375366
 10
96.82898928145474
 20
64.67870637088916
 10
96.04484057431924
 20
63.89455766375366
 10
95.07898928145472
 20
63.89455766375366
 10
94.11313798859024
 20
63.89455766375366
 10
93.32898928145472
 20
64.67870637088916
 10
93.32898928145472
 20
65.64455766375366
 10
93.32898928145472
 20
66.61040895661813
 10
94.11313798859024
 20
67.39455766375366
 10
95.07898928145472
 20
67.39455766375366
 97
        0
 97
        0
 75
     0
 76
     1
 98
        0
  0
SPLINE
  5
B0
330
1F
100
AcDbEntity
  8
0
  6
Continuous
 62
    18
420
        0
370
     9
100
AcDbSpline
210
0.0
220
0.0
230
1.0
 70
    11
 71
     3
 72
    17
 73
    13
 74
     0
 42
0.000000001
 43
0.0
 40
0.0
 40
0.0
 40
0.0
 40
0.0
 40
1.0
 40
1.0
 40
1.0
 40
2.0
 40
2.0
 40
2.0
 40
3.0
 40
3.0
 40
3.0
 40
4.0
 40
4.0
 40
4.0
 40
4.0
 10
95.07898928145472
 20
67.39455766375366
 30
0.0
 10
96.04484057431924
 20
67.39455766375366
 30
0.0
 10
96.82898928145474
 20
66.61040895661813
 30
0.0
 10
96.82898928145474
 20
65.64455766375366
 30
0.0
 10
96.82898928145474
 20
64.67870637088916
 30
0.0
 10
96.04484057431924
 20
63.89455766375366
 30
0.0
 10
95.07898928145472
 20
63.89455766375366
 30
0.0
 10
94.11313798859024
 20
63.89455766375366
 30
0.0
 10
93.32898928145472
 20
64.67870637088916
 30
0.0
 10
93.32898928145472
 20
65.64455766375366
 30
0.0
 10
93.32898928145472
 20
66.61040895661813
 30
0.0
 10
94.11313798859024
 20
67.39455766375366
 30
0.0
 10
95.07898928145472
 20
67.39455766375366
 30
0.0
  0
HATCH
  5
B1
330
1F
100
AcDbEntity
  8
0
 62
     7
420
 15461355
440
 33554687
100
AcDbHatch
 10
0.0
 20
0.0
 30
0.0
210
0.0
220
0.0
230
1.0
  2
SOLID
 70
     1
 71
     1
 91
        1
 92
        0
 93
        1
 72
     4
 94
        3
 73
     0
 74
     1
 95
       17
 96
       13
 40
0.0
 40
0.0
 40
0.0
 40
0.0
 40
1.0
 40
1.0
 40
1.0
 40
2.0
 40
2.0
 40
2.0
 40
3.0
 40
3.0
 40
3.0
 40
4.0
 40
4.0
 40
4.0
 40
4.0
 10
375.0
 20
91.7423333333333
 10
375.9382555416398
 20
91.7423333333333
 10
376.7
 20
90.9805888749731
 10
376.7
 20
90.0423333333333
 10
376.7
 20
89.1040777916935
 10
375.9382555416398
 20
88.34233333333331
 10
375.0
 20
88.34233333333331
 10
374.0617444583602
 20
88.34233333333331
 10
373.3
 20
89.1040777916935
 10
373.3
 20
90.0423333333333
 10
373.3
 20
90.9805888749731
 10
374.0617444583602
 20
91.7423333333333
 10
375.0
 20
91.7423333333333
 97
        0
 97
        0
 75
     0
 76
     1
 98
        0
  0
SPLINE
  5
B2
330
1F
100
AcDbEntity
  8
0
  6
Continuous
 62
    18
420
        0
370
     9
100
AcDbSpline
210
0.0
220
0.0
230
1.0
 70
    11
 71
     3
 72
    17
 73
    13
 74
     0
 42
0.000000001
 43
0.0
 40
0.0
 40
0.0
 40
0.0
 40
0.0
 40
1.0
 40
1.0
 40
1.0
 40
2.0
 40
2.0
 40
2.0
 40
3.0
 40
3.0
 40
3.0
 40
4.0
 40
4.0
 40
4.0
 40
4.0
 10
375.0
 20
91.7423333333333
 30
0.0
 10
375.9382555416398
 20
91.7423333333333
 30
0.0
 10
376.7
 20
90.9805888749731
 30
0.0
 10
376.7
 20
90.0423333333333
 30
0.0
 10
376.7
 20
89.1040777916935
 30
0.0
 10
375.9382555416398
 20
88.34233333333331
 30
0.0
 10
375.0
 20
88.34233333333331
 30
0.0
 10
374.0617444583602
 20
88.34233333333331
 30
0.0
 10
373.3
 20
89.1040777916935
 30
0.0
 10
373.3
 20
90.0423333333333
 30
0.0
 10
373.3
 20
90.9805888749731
 30
0.0
 10
374.0617444583602
 20
91.7423333333333
 30
0.0
 10
375.0
 20
91.7423333333333
 30
0.0
  0
HATCH
  5
B3
330
1F
100
AcDbEntity
  8
0
 62
     7
420
 15461355
440
 33554687
100
AcDbHatch
 10
0.0
 20
0.0
 30
0.0
210
0.0
220
0.0
230
1.0
  2
SOLID
 70
     1
 71
     1
 91
        1
 92
        0
 93
        1
 72
     4
 94
        3
 73
     0
 74
     1
 95
       17
 96
       13
 40
0.0
 40
0.0
 40
0.0
 40
0.0
 40
1.0
 40
1.0
 40
1.0
 40
2.0
 40
2.0
 40
2.0
 40
3.0
 40
3.0
 40
3.0
 40
4.0
 40
4.0
 40
4.0
 40
4.0
 10
45.0
 20
11.74233333333331
 10
45.9382555416398
 20
11.74233333333331
 10
46.7
 20
10.98058887497308
 10
46.7
 20
10.04233333333332
 10
46.7
 20
9.104077791693499
 10
45.9382555416398
 20
8.3423333333333
 10
45.0
 20
8.3423333333333
 10
44.0617444583602
 20
8.3423333333333
 10
43.3
 20
9.104077791693499
 10
43.3
 20
10.04233333333332
 10
43.3
 20
10.98058887497308
 10
44.0617444583602
 20
11.74233333333331
 10
45.0
 20
11.74233333333331
 97
        0
 97
        0
 75
     0
 76
     1
 98
        0
  0
SPLINE
  5
B4
330
1F
100
AcDbEntity
  8
0
  6
Continuous
 62
    18
420
        0
370
     9
100
AcDbSpline
210
0.0
220
0.0
230
1.0
 70
    11
 71
     3
 72
    17
 73
    13
 74
     0
 42
0.000000001
 43
0.0
 40
0.0
 40
0.0
 40
0.0
 40
0.0
 40
1.0
 40
1.0
 40
1.0
 40
2.0
 40
2.0
 40
2.0
 40
3.0
 40
3.0
 40
3.0
 40
4.0
 40
4.0
 40
4.0
 40
4.0
 10
45.0
 20
11.74233333333331
 30
0.0
 10
45.9382555416398
 20
11.74233333333331
 30
0.0
 10
46.7
 20
10.98058887497308
 30
0.0
 10
46.7
 20
10.04233333333332
 30
0.0
 10
46.7
 20
9.104077791693499
 30
0.0
 10
45.9382555416398
 20
8.3423333333333
 30
0.0
 10
45.0
 20
8.3423333333333
 30
0.0
 10
44.0617444583602
 20
8.3423333333333
 30
0.0
 10
43.3
 20
9.104077791693499
 30
0.0
 10
43.3
 20
10.04233333333332
 30
0.0
 10
43.3
 20
10.98058887497308
 30
0.0
 10
44.0617444583602
 20
11.74233333333331
 30
0.0
 10
45.0
 20
11.74233333333331
 30
0.0
  0
HATCH
  5
B5
330
1F
100
AcDbEntity
  8
0
 62
     7
420
 15461355
440
 33554687
100
AcDbHatch
 10
0.0
 20
0.0
 30
0.0
210
0.0
220
0.0
230
1.0
  2
SOLID
 70
     1
 71
     1
 91
        1
 92
        0
 93
        1
 72
     4
 94
        3
 73
     0
 74
     1
 95
       17
 96
       13
 40
0.0
 40
0.0
 40
0.0
 40
0.0
 40
1.0
 40
1.0
 40
1.0
 40
2.0
 40
2.0
 40
2.0
 40
3.0
 40
3.0
 40
3.0
 40
4.0
 40
4.0
 40
4.0
 40
4.0
 10
374.9999999999999
 20
11.74233333333331
 10
375.9382555416397
 20
11.74233333333331
 10
376.6999999999999
 20
10.98058887497311
 10
376.6999999999999
 20
10.04233333333335
 10
376.6999999999999
 20
9.104077791693527
 10
375.9382555416397
 20
8.3423333333333
 10
374.9999999999999
 20
8.3423333333333
 10
374.0617444583602
 20
8.3423333333333
 10
373.3
 20
9.104077791693527
 10
373.3
 20
10.04233333333335
 10
373.3
 20
10.98058887497311
 10
374.0617444583602
 20
11.74233333333331
 10
374.9999999999999
 20
11.74233333333331
 97
        0
 97
        0
 75
     0
 76
     1
 98
        0
  0
SPLINE
  5
B6
330
1F
100
AcDbEntity
  8
0
  6
Continuous
 62
    18
420
        0
370
     9
100
AcDbSpline
210
0.0
220
0.0
230
1.0
 70
    11
 71
     3
 72
    17
 73
    13
 74
     0
 42
0.000000001
 43
0.0
 40
0.0
 40
0.0
 40
0.0
 40
0.0
 40
1.0
 40
1.0
 40
1.0
 40
2.0
 40
2.0
 40
2.0
 40
3.0
 40
3.0
 40
3.0
 40
4.0
 40
4.0
 40
4.0
 40
4.0
 10
374.9999999999999
 20
11.74233333333331
 30
0.0
 10
375.9382555416397
 20
11.74233333333331
 30
0.0
 10
376.6999999999999
 20
10.98058887497311
 30
0.0
 10
376.6999999999999
 20
10.04233333333335
 30
0.0
 10
376.6999999999999
 20
9.104077791693527
 30
0.0
 10
375.9382555416397
 20
8.3423333333333
 30
0.0
 10
374.9999999999999
 20
8.3423333333333
 30
0.0
 10
374.0617444583602
 20
8.3423333333333
 30
0.0
 10
373.3
 20
9.104077791693527
 30
0.0
 10
373.3
 20
10.04233333333335
 30
0.0
 10
373.3
 20
10.98058887497311
 30
0.0
 10
374.0617444583602
 20
11.74233333333331
 30
0.0
 10
374.9999999999999
 20
11.74233333333331
 30
0.0
  0
HATCH
  5
B7
330
1F
100
AcDbEntity
  8
0
 62
     7
420
 15461355
440
 33554687
100
AcDbHatch
 10
0.0
 20
0.0
 30
0.0
210
0.0
220
0.0
230
1.0
  2
SOLID
 70
     1
 71
     1
 91
        1
 92
        0
 93
        1
 72
     4
 94
        3
 73
     0
 74
     1
 95
       17
 96
       13
 40
0.0
 40
0.0
 40
0.0
 40
0.0
 40
1.0
 40
1.0
 40
1.0
 40
2.0
 40
2.0
 40
2.0
 40
3.0
 40
3.0
 40
3.0
 40
4.0
 40
4.0
 40
4.0
 40
4.0
 10
79.99999999999999
 20
36.61877772209348
 10
80.88306403919039
 20
36.61877772209348
 10
81.59999999999998
 20
35.90184176128386
 10
81.59999999999998
 20
35.01877772209346
 10
81.59999999999998
 20
34.13571368290306
 10
80.88306403919039
 20
33.41877772209347
 10
79.99999999999999
 20
33.41877772209347
 10
79.11693596080958
 20
33.41877772209347
 10
78.39999999999998
 20
34.13571368290306
 10
78.39999999999998
 20
35.01877772209346
 10
78.39999999999998
 20
35.90184176128386
 10
79.11693596080958
 20
36.61877772209348
 10
79.99999999999999
 20
36.61877772209348
 97
        0
 97
        0
 75
     0
 76
     1
 98
        0
  0
SPLINE
  5
B8
330
1F
100
AcDbEntity
  8
0
  6
Continuous
 62
    18
420
        0
370
     9
100
AcDbSpline
210
0.0
220
0.0
230
1.0
 70
    11
 71
     3
 72
    17
 73
    13
 74
     0
 42
0.000000001
 43
0.0
 40
0.0
 40
0.0
 40
0.0
 40
0.0
 40
1.0
 40
1.0
 40
1.0
 40
2.0
 40
2.0
 40
2.0
 40
3.0
 40
3.0
 40
3.0
 40
4.0
 40
4.0
 40
4.0
 40
4.0
 10
79.99999999999999
 20
36.61877772209348
 30
0.0
 10
80.88306403919039
 20
36.61877772209348
 30
0.0
 10
81.59999999999998
 20
35.90184176128386
 30
0.0
 10
81.59999999999998
 20
35.01877772209346
 30
0.0
 10
81.59999999999998
 20
34.13571368290306
 30
0.0
 10
80.88306403919039
 20
33.41877772209347
 30
0.0
 10
79.99999999999999
 20
33.41877772209347
 30
0.0
 10
79.11693596080958
 20
33.41877772209347
 30
0.0
 10
78.39999999999998
 20
34.13571368290306
 30
0.0
 10
78.39999999999998
 20
35.01877772209346
 30
0.0
 10
78.39999999999998
 20
35.90184176128386
 30
0.0
 10
79.11693596080958
 20
36.61877772209348
 30
0.0
 10
79.99999999999999
 20
36.61877772209348
 30
0.0
  0
HATCH
  5
B9
330
1F
100
AcDbEntity
  8
0
 62
     7
420
 15461355
440
 33554687
100
AcDbHatch
 10
0.0
 20
0.0
 30
0.0
210
0.0
220
0.0
230
1.0
  2
SOLID
 70
     1
 71
     1
 91
        1
 92
        0
 93
        1
 72
     4
 94
        3
 73
     0
 74
     1
 95
       17
 96
       13
 40
0.0
 40
0.0
 40
0.0
 40
0.0
 40
1.0
 40
1.0
 40
1.0
 40
2.0
 40
2.0
 40
2.0
 40
3.0
 40
3.0
 40
3.0
 40
4.0
 40
4.0
 40
4.0
 40
4.0
 10
100.0
 20
36.61877772209348
 10
100.8830640391904
 20
36.61877772209348
 10
101.6
 20
35.90184176128386
 10
101.6
 20
35.01877772209346
 10
101.6
 20
34.13571368290306
 10
100.8830640391904
 20
33.41877772209347
 10
100.0
 20
33.41877772209347
 10
99.11693596080958
 20
33.41877772209347
 10
98.39999999999998
 20
34.13571368290306
 10
98.39999999999998
 20
35.01877772209346
 10
98.39999999999998
 20
35.90184176128386
 10
99.11693596080958
 20
36.61877772209348
 10
100.0
 20
36.61877772209348
 97
        0
 97
        0
 75
     0
 76
     1
 98
        0
  0
SPLINE
  5
BA
330
1F
100
AcDbEntity
  8
0
  6
Continuous
 62
    18
420
        0
370
     9
100
AcDbSpline
210
0.0
220
0.0
230
1.0
 70
    11
 71
     3
 72
    17
 73
    13
 74
     0
 42
0.000000001
 43
0.0
 40
0.0
 40
0.0
 40
0.0
 40
0.0
 40
1.0
 40
1.0
 40
1.0
 40
2.0
 40
2.0
 40
2.0
 40
3.0
 40
3.0
 40
3.0
 40
4.0
 40
4.0
 40
4.0
 40
4.0
 10
100.0
 20
36.61877772209348
 30
0.0
 10
100.8830640391904
 20
36.61877772209348
 30
0.0
 10
101.6
 20
35.90184176128386
 30
0.0
 10
101.6
 20
35.01877772209346
 30
0.0
 10
101.6
 20
34.13571368290306
 30
0.0
 10
100.8830640391904
 20
33.41877772209347
 30
0.0
 10
100.0
 20
33.41877772209347
 30
0.0
 10
99.11693596080958
 20
33.41877772209347
 30
0.0
 10
98.39999999999998
 20
34.13571368290306
 30
0.0
 10
98.39999999999998
 20
35.01877772209346
 30
0.0
 10
98.39999999999998
 20
35.90184176128386
 30
0.0
 10
99.11693596080958
 20
36.61877772209348
 30
0.0
 10
100.0
 20
36.61877772209348
 30
0.0
  0
HATCH
  5
BB
330
1F
100
AcDbEntity
  8
0
 62
     7
420
 15461355
440
 33554687
100
AcDbHatch
 10
0.0
 20
0.0
 30
0.0
210
0.0
220
0.0
230
1.0
  2
SOLID
 70
     1
 71
     1
 91
        1
 92
        0
 93
        1
 72
     4
 94
        3
 73
     0
 74
     1
 95
       17
 96
       13
 40
0.0
 40
0.0
 40
0.0
 40
0.0
 40
1.0
 40
1.0
 40
1.0
 40
2.0
 40
2.0
 40
2.0
 40
3.0
 40
3.0
 40
3.0
 40
4.0
 40
4.0
 40
4.0
 40
4.0
 10
120.0
 20
36.61877772209348
 10
120.8830640391904
 20
36.61877772209348
 10
121.6
 20
35.90184176128386
 10
121.6
 20
35.01877772209346
 10
121.6
 20
34.13571368290306
 10
120.8830640391904
 20
33.41877772209347
 10
120.0
 20
33.41877772209347
 10
119.1169359608096
 20
33.41877772209347
 10
118.4
 20
34.13571368290306
 10
118.4
 20
35.01877772209346
 10
118.4
 20
35.90184176128386
 10
119.1169359608096
 20
36.61877772209348
 10
120.0
 20
36.61877772209348
 97
        0
 97
        0
 75
     0
 76
     1
 98
        0
  0
SPLINE
  5
BC
330
1F
100
AcDbEntity
  8
0
  6
Continuous
 62
    18
420
        0
370
     9
100
AcDbSpline
210
0.0
220
0.0
230
1.0
 70
    11
 71
     3
 72
    17
 73
    13
 74
     0
 42
0.000000001
 43
0.0
 40
0.0
 40
0.0
 40
0.0
 40
0.0
 40
1.0
 40
1.0
 40
1.0
 40
2.0
 40
2.0
 40
2.0
 40
3.0
 40
3.0
 40
3.0
 40
4.0
 40
4.0
 40
4.0
 40
4.0
 10
120.0
 20
36.61877772209348
 30
0.0
 10
120.8830640391904
 20
36.61877772209348
 30
0.0
 10
121.6
 20
35.90184176128386
 30
0.0
 10
121.6
 20
35.01877772209346
 30
0.0
 10
121.6
 20
34.13571368290306
 30
0.0
 10
120.8830640391904
 20
33.41877772209347
 30
0.0
 10
120.0
 20
33.41877772209347
 30
0.0
 10
119.1169359608096
 20
33.41877772209347
 30
0.0
 10
118.4
 20
34.13571368290306
 30
0.0
 10
118.4
 20
35.01877772209346
 30
0.0
 10
118.4
 20
35.90184176128386
 30
0.0
 10
119.1169359608096
 20
36.61877772209348
 30
0.0
 10
120.0
 20
36.61877772209348
 30
0.0
  0
HATCH
  5
BD
330
1F
100
AcDbEntity
  8
0
 62
     7
420
 15461355
440
 33554687
100
AcDbHatch
 10
0.0
 20
0.0
 30
0.0
210
0.0
220
0.0
230
1.0
  2
SOLID
 70
     1
 71
     1
 91
        1
 92
        0
 93
        1
 72
     4
 94
        3
 73
     0
 74
     1
 95
       17
 96
       13
 40
0.0
 40
0.0
 40
0.0
 40
0.0
 40
1.0
 40
1.0
 40
1.0
 40
2.0
 40
2.0
 40
2.0
 40
3.0
 40
3.0
 40
3.0
 40
4.0
 40
4.0
 40
4.0
 40
4.0
 10
140.0
 20
36.61877772209348
 10
140.8830640391904
 20
36.61877772209348
 10
141.6
 20
35.90184176128386
 10
141.6
 20
35.01877772209346
 10
141.6
 20
34.13571368290306
 10
140.8830640391904
 20
33.41877772209347
 10
140.0
 20
33.41877772209347
 10
139.1169359608096
 20
33.41877772209347
 10
138.4
 20
34.13571368290306
 10
138.4
 20
35.01877772209346
 10
138.4
 20
35.90184176128386
 10
139.1169359608096
 20
36.61877772209348
 10
140.0
 20
36.61877772209348
 97
        0
 97
        0
 75
     0
 76
     1
 98
        0
  0
SPLINE
  5
BE
330
1F
100
AcDbEntity
  8
0
  6
Continuous
 62
    18
420
        0
370
     9
100
AcDbSpline
210
0.0
220
0.0
230
1.0
 70
    11
 71
     3
 72
    17
 73
    13
 74
     0
 42
0.000000001
 43
0.0
 40
0.0
 40
0.0
 40
0.0
 40
0.0
 40
1.0
 40
1.0
 40
1.0
 40
2.0
 40
2.0
 40
2.0
 40
3.0
 40
3.0
 40
3.0
 40
4.0
 40
4.0
 40
4.0
 40
4.0
 10
140.0
 20
36.61877772209348
 30
0.0
 10
140.8830640391904
 20
36.61877772209348
 30
0.0
 10
141.6
 20
35.90184176128386
 30
0.0
 10
141.6
 20
35.01877772209346
 30
0.0
 10
141.6
 20
34.13571368290306
 30
0.0
 10
140.8830640391904
 20
33.41877772209347
 30
0.0
 10
140.0
 20
33.41877772209347
 30
0.0
 10
139.1169359608096
 20
33.41877772209347
 30
0.0
 10
138.4
 20
34.13571368290306
 30
0.0
 10
138.4
 20
35.01877772209346
 30
0.0
 10
138.4
 20
35.90184176128386
 30
0.0
 10
139.1169359608096
 20
36.61877772209348
 30
0.0
 10
140.0
 20
36.61877772209348
 30
0.0
  0
HATCH
  5
BF
330
1F
100
AcDbEntity
  8
0
 62
     7
420
 15461355
440
 33554687
100
AcDbHatch
 10
0.0
 20
0.0
 30
0.0
210
0.0
220
0.0
230
1.0
  2
SOLID
 70
     1
 71
     1
 91
        1
 92
        0
 93
        1
 72
     4
 94
        3
 73
     0
 74
     1
 95
       17
 96
       13
 40
0.0
 40
0.0
 40
0.0
 40
0.0
 40
1.0
 40
1.0
 40
1.0
 40
2.0
 40
2.0
 40
2.0
 40
3.0
 40
3.0
 40
3.0
 40
4.0
 40
4.0
 40
4.0
 40
4.0
 10
160.0
 20
36.61877772209348
 10
160.8830640391904
 20
36.61877772209348
 10
161.5999999999999
 20
35.90184176128386
 10
161.5999999999999
 20
35.01877772209346
 10
161.5999999999999
 20
34.13571368290306
 10
160.8830640391904
 20
33.41877772209347
 10
160.0
 20
33.41877772209347
 10
159.1169359608096
 20
33.41877772209347
 10
158.3999999999999
 20
34.13571368290306
 10
158.3999999999999
 20
35.01877772209346
 10
158.3999999999999
 20
35.90184176128386
 10
159.1169359608096
 20
36.61877772209348
 10
160.0
 20
36.61877772209348
 97
        0
 97
        0
 75
     0
 76
     1
 98
        0
  0
SPLINE
  5
C0
330
1F
100
AcDbEntity
  8
0
  6
Continuous
 62
    18
420
        0
370
     9
100
AcDbSpline
210
0.0
220
0.0
230
1.0
 70
    11
 71
     3
 72
    17
 73
    13
 74
     0
 42
0.000000001
 43
0.0
 40
0.0
 40
0.0
 40
0.0
 40
0.0
 40
1.0
 40
1.0
 40
1.0
 40
2.0
 40
2.0
 40
2.0
 40
3.0
 40
3.0
 40
3.0
 40
4.0
 40
4.0
 40
4.0
 40
4.0
 10
160.0
 20
36.61877772209348
 30
0.0
 10
160.8830640391904
 20
36.61877772209348
 30
0.0
 10
161.5999999999999
 20
35.90184176128386
 30
0.0
 10
161.5999999999999
 20
35.01877772209346
 30
0.0
 10
161.5999999999999
 20
34.13571368290306
 30
0.0
 10
160.8830640391904
 20
33.41877772209347
 30
0.0
 10
160.0
 20
33.41877772209347
 30
0.0
 10
159.1169359608096
 20
33.41877772209347
 30
0.0
 10
158.3999999999999
 20
34.13571368290306
 30
0.0
 10
158.3999999999999
 20
35.01877772209346
 30
0.0
 10
158.3999999999999
 20
35.90184176128386
 30
0.0
 10
159.1169359608096
 20
36.61877772209348
 30
0.0
 10
160.0
 20
36.61877772209348
 30
0.0
  0
HATCH
  5
C1
330
1F
100
AcDbEntity
  8
0
 62
     7
420
 15461355
440
 33554687
100
AcDbHatch
 10
0.0
 20
0.0
 30
0.0
210
0.0
220
0.0
230
1.0
  2
SOLID
 70
     1
 71
     1
 91
        1
 92
        0
 93
        1
 72
     4
 94
        3
 73
     0
 74
     1
 95
       17
 96
       13
 40
0.0
 40
0.0
 40
0.0
 40
0.0
 40
1.0
 40
1.0
 40
1.0
 40
2.0
 40
2.0
 40
2.0
 40
3.0
 40
3.0
 40
3.0
 40
4.0
 40
4.0
 40
4.0
 40
4.0
 10
180.0
 20
36.61877772209348
 10
180.8830640391904
 20
36.61877772209348
 10
181.5999999999999
 20
35.90184176128386
 10
181.5999999999999
 20
35.01877772209346
 10
181.5999999999999
 20
34.13571368290306
 10
180.8830640391904
 20
33.41877772209347
 10
180.0
 20
33.41877772209347
 10
179.1169359608096
 20
33.41877772209347
 10
178.3999999999999
 20
34.13571368290306
 10
178.3999999999999
 20
35.01877772209346
 10
178.3999999999999
 20
35.90184176128386
 10
179.1169359608096
 20
36.61877772209348
 10
180.0
 20
36.61877772209348
 97
        0
 97
        0
 75
     0
 76
     1
 98
        0
  0
SPLINE
  5
C2
330
1F
100
AcDbEntity
  8
0
  6
Continuous
 62
    18
420
        0
370
     9
100
AcDbSpline
210
0.0
220
0.0
230
1.0
 70
    11
 71
     3
 72
    17
 73
    13
 74
     0
 42
0.000000001
 43
0.0
 40
0.0
 40
0.0
 40
0.0
 40
0.0
 40
1.0
 40
1.0
 40
1.0
 40
2.0
 40
2.0
 40
2.0
 40
3.0
 40
3.0
 40
3.0
 40
4.0
 40
4.0
 40
4.0
 40
4.0
 10
180.0
 20
36.61877772209348
 30
0.0
 10
180.8830640391904
 20
36.61877772209348
 30
0.0
 10
181.5999999999999
 20
35.90184176128386
 30
0.0
 10
181.5999999999999
 20
35.01877772209346
 30
0.0
 10
181.5999999999999
 20
34.13571368290306
 30
0.0
 10
180.8830640391904
 20
33.41877772209347
 30
0.0
 10
180.0
 20
33.41877772209347
 30
0.0
 10
179.1169359608096
 20
33.41877772209347
 30
0.0
 10
178.3999999999999
 20
34.13571368290306
 30
0.0
 10
178.3999999999999
 20
35.01877772209346
 30
0.0
 10
178.3999999999999
 20
35.90184176128386
 30
0.0
 10
179.1169359608096
 20
36.61877772209348
 30
0.0
 10
180.0
 20
36.61877772209348
 30
0.0
  0
HATCH
  5
C3
330
1F
100
AcDbEntity
  8
0
 62
     7
420
 15461355
440
 33554687
100
AcDbHatch
 10
0.0
 20
0.0
 30
0.0
210
0.0
220
0.0
230
1.0
  2
SOLID
 70
     1
 71
     1
 91
        1
 92
        0
 93
        1
 72
     4
 94
        3
 73
     0
 74
     1
 95
       17
 96
       13
 40
0.0
 40
0.0
 40
0.0
 40
0.0
 40
1.0
 40
1.0
 40
1.0
 40
2.0
 40
2.0
 40
2.0
 40
3.0
 40
3.0
 40
3.0
 40
4.0
 40
4.0
 40
4.0
 40
4.0
 10
200.0
 20
36.61877772209348
 10
200.8830640391904
 20
36.61877772209348
 10
201.6
 20
35.90184176128386
 10
201.6
 20
35.01877772209346
 10
201.6
 20
34.13571368290306
 10
200.8830640391904
 20
33.41877772209347
 10
200.0
 20
33.41877772209347
 10
199.1169359608096
 20
33.41877772209347
 10
198.4
 20
34.13571368290306
 10
198.4
 20
35.01877772209346
 10
198.4
 20
35.90184176128386
 10
199.1169359608096
 20
36.61877772209348
 10
200.0
 20
36.61877772209348
 97
        0
 97
        0
 75
     0
 76
     1
 98
        0
  0
SPLINE
  5
C4
330
1F
100
AcDbEntity
  8
0
  6
Continuous
 62
    18
420
        0
370
     9
100
AcDbSpline
210
0.0
220
0.0
230
1.0
 70
    11
 71
     3
 72
    17
 73
    13
 74
     0
 42
0.000000001
 43
0.0
 40
0.0
 40
0.0
 40
0.0
 40
0.0
 40
1.0
 40
1.0
 40
1.0
 40
2.0
 40
2.0
 40
2.0
 40
3.0
 40
3.0
 40
3.0
 40
4.0
 40
4.0
 40
4.0
 40
4.0
 10
200.0
 20
36.61877772209348
 30
0.0
 10
200.8830640391904
 20
36.61877772209348
 30
0.0
 10
201.6
 20
35.90184176128386
 30
0.0
 10
201.6
 20
35.01877772209346
 30
0.0
 10
201.6
 20
34.13571368290306
 30
0.0
 10
200.8830640391904
 20
33.41877772209347
 30
0.0
 10
200.0
 20
33.41877772209347
 30
0.0
 10
199.1169359608096
 20
33.41877772209347
 30
0.0
 10
198.4
 20
34.13571368290306
 30
0.0
 10
198.4
 20
35.01877772209346
 30
0.0
 10
198.4
 20
35.90184176128386
 30
0.0
 10
199.1169359608096
 20
36.61877772209348
 30
0.0
 10
200.0
 20
36.61877772209348
 30
0.0
  0
HATCH
  5
C5
330
1F
100
AcDbEntity
  8
0
 62
     7
420
 15461355
440
 33554687
100
AcDbHatch
 10
0.0
 20
0.0
 30
0.0
210
0.0
220
0.0
230
1.0
  2
SOLID
 70
     1
 71
     1
 91
        1
 92
        0
 93
        1
 72
     4
 94
        3
 73
     0
 74
     1
 95
       17
 96
       13
 40
0.0
 40
0.0
 40
0.0
 40
0.0
 40
1.0
 40
1.0
 40
1.0
 40
2.0
 40
2.0
 40
2.0
 40
3.0
 40
3.0
 40
3.0
 40
4.0
 40
4.0
 40
4.0
 40
4.0
 10
220.0
 20
36.61877772209348
 10
220.8830640391904
 20
36.61877772209348
 10
221.6
 20
35.90184176128386
 10
221.6
 20
35.01877772209346
 10
221.6
 20
34.13571368290306
 10
220.8830640391904
 20
33.41877772209347
 10
220.0
 20
33.41877772209347
 10
219.1169359608096
 20
33.41877772209347
 10
218.4
 20
34.13571368290306
 10
218.4
 20
35.01877772209346
 10
218.4
 20
35.90184176128386
 10
219.1169359608096
 20
36.61877772209348
 10
220.0
 20
36.61877772209348
 97
        0
 97
        0
 75
     0
 76
     1
 98
        0
  0
SPLINE
  5
C6
330
1F
100
AcDbEntity
  8
0
  6
Continuous
 62
    18
420
        0
370
     9
100
AcDbSpline
210
0.0
220
0.0
230
1.0
 70
    11
 71
     3
 72
    17
 73
    13
 74
     0
 42
0.000000001
 43
0.0
 40
0.0
 40
0.0
 40
0.0
 40
0.0
 40
1.0
 40
1.0
 40
1.0
 40
2.0
 40
2.0
 40
2.0
 40
3.0
 40
3.0
 40
3.0
 40
4.0
 40
4.0
 40
4.0
 40
4.0
 10
220.0
 20
36.61877772209348
 30
0.0
 10
220.8830640391904
 20
36.61877772209348
 30
0.0
 10
221.6
 20
35.90184176128386
 30
0.0
 10
221.6
 20
35.01877772209346
 30
0.0
 10
221.6
 20
34.13571368290306
 30
0.0
 10
220.8830640391904
 20
33.41877772209347
 30
0.0
 10
220.0
 20
33.41877772209347
 30
0.0
 10
219.1169359608096
 20
33.41877772209347
 30
0.0
 10
218.4
 20
34.13571368290306
 30
0.0
 10
218.4
 20
35.01877772209346
 30
0.0
 10
218.4
 20
35.90184176128386
 30
0.0
 10
219.1169359608096
 20
36.61877772209348
 30
0.0
 10
220.0
 20
36.61877772209348
 30
0.0
  0
HATCH
  5
C7
330
1F
100
AcDbEntity
  8
0
 62
     7
420
 15461355
440
 33554687
100
AcDbHatch
 10
0.0
 20
0.0
 30
0.0
210
0.0
220
0.0
230
1.0
  2
SOLID
 70
     1
 71
     1
 91
        1
 92
        0
 93
        1
 72
     4
 94
        3
 73
     0
 74
     1
 95
       17
 96
       13
 40
0.0
 40
0.0
 40
0.0
 40
0.0
 40
1.0
 40
1.0
 40
1.0
 40
2.0
 40
2.0
 40
2.0
 40
3.0
 40
3.0
 40
3.0
 40
4.0
 40
4.0
 40
4.0
 40
4.0
 10
240.0
 20
36.61877772209348
 10
240.8830640391904
 20
36.61877772209348
 10
241.6
 20
35.90184176128386
 10
241.6
 20
35.01877772209346
 10
241.6
 20
34.13571368290306
 10
240.8830640391904
 20
33.41877772209347
 10
240.0
 20
33.41877772209347
 10
239.1169359608096
 20
33.41877772209347
 10
238.4
 20
34.13571368290306
 10
238.4
 20
35.01877772209346
 10
238.4
 20
35.90184176128386
 10
239.1169359608096
 20
36.61877772209348
 10
240.0
 20
36.61877772209348
 97
        0
 97
        0
 75
     0
 76
     1
 98
        0
  0
SPLINE
  5
C8
330
1F
100
AcDbEntity
  8
0
  6
Continuous
 62
    18
420
        0
370
     9
100
AcDbSpline
210
0.0
220
0.0
230
1.0
 70
    11
 71
     3
 72
    17
 73
    13
 74
     0
 42
0.000000001
 43
0.0
 40
0.0
 40
0.0
 40
0.0
 40
0.0
 40
1.0
 40
1.0
 40
1.0
 40
2.0
 40
2.0
 40
2.0
 40
3.0
 40
3.0
 40
3.0
 40
4.0
 40
4.0
 40
4.0
 40
4.0
 10
240.0
 20
36.61877772209348
 30
0.0
 10
240.8830640391904
 20
36.61877772209348
 30
0.0
 10
241.6
 20
35.90184176128386
 30
0.0
 10
241.6
 20
35.01877772209346
 30
0.0
 10
241.6
 20
34.13571368290306
 30
0.0
 10
240.8830640391904
 20
33.41877772209347
 30
0.0
 10
240.0
 20
33.41877772209347
 30
0.0
 10
239.1169359608096
 20
33.41877772209347
 30
0.0
 10
238.4
 20
34.13571368290306
 30
0.0
 10
238.4
 20
35.01877772209346
 30
0.0
 10
238.4
 20
35.90184176128386
 30
0.0
 10
239.1169359608096
 20
36.61877772209348
 30
0.0
 10
240.0
 20
36.61877772209348
 30
0.0
  0
HATCH
  5
C9
330
1F
100
AcDbEntity
  8
0
 62
     7
420
 15461355
440
 33554687
100
AcDbHatch
 10
0.0
 20
0.0
 30
0.0
210
0.0
220
0.0
230
1.0
  2
SOLID
 70
     1
 71
     1
 91
        1
 92
        0
 93
        1
 72
     4
 94
        3
 73
     0
 74
     1
 95
       17
 96
       13
 40
0.0
 40
0.0
 40
0.0
 40
0.0
 40
1.0
 40
1.0
 40
1.0
 40
2.0
 40
2.0
 40
2.0
 40
3.0
 40
3.0
 40
3.0
 40
4.0
 40
4.0
 40
4.0
 40
4.0
 10
260.0
 20
36.61877772209348
 10
260.8830640391904
 20
36.61877772209348
 10
261.6
 20
35.90184176128386
 10
261.6
 20
35.01877772209346
 10
261.6
 20
34.13571368290306
 10
260.8830640391904
 20
33.41877772209347
 10
260.0
 20
33.41877772209347
 10
259.1169359608096
 20
33.41877772209347
 10
258.4
 20
34.13571368290306
 10
258.4
 20
35.01877772209346
 10
258.4
 20
35.90184176128386
 10
259.1169359608096
 20
36.61877772209348
 10
260.0
 20
36.61877772209348
 97
        0
 97
        0
 75
     0
 76
     1
 98
        0
  0
SPLINE
  5
CA
330
1F
100
AcDbEntity
  8
0
  6
Continuous
 62
    18
420
        0
370
     9
100
AcDbSpline
210
0.0
220
0.0
230
1.0
 70
    11
 71
     3
 72
    17
 73
    13
 74
     0
 42
0.000000001
 43
0.0
 40
0.0
 40
0.0
 40
0.0
 40
0.0
 40
1.0
 40
1.0
 40
1.0
 40
2.0
 40
2.0
 40
2.0
 40
3.0
 40
3.0
 40
3.0
 40
4.0
 40
4.0
 40
4.0
 40
4.0
 10
260.0
 20
36.61877772209348
 30
0.0
 10
260.8830640391904
 20
36.61877772209348
 30
0.0
 10
261.6
 20
35.90184176128386
 30
0.0
 10
261.6
 20
35.01877772209346
 30
0.0
 10
261.6
 20
34.13571368290306
 30
0.0
 10
260.8830640391904
 20
33.41877772209347
 30
0.0
 10
260.0
 20
33.41877772209347
 30
0.0
 10
259.1169359608096
 20
33.41877772209347
 30
0.0
 10
258.4
 20
34.13571368290306
 30
0.0
 10
258.4
 20
35.01877772209346
 30
0.0
 10
258.4
 20
35.90184176128386
 30
0.0
 10
259.1169359608096
 20
36.61877772209348
 30
0.0
 10
260.0
 20
36.61877772209348
 30
0.0
  0
HATCH
  5
CB
330
1F
100
AcDbEntity
  8
0
 62
     7
420
 15461355
440
 33554687
100
AcDbHatch
 10
0.0
 20
0.0
 30
0.0
210
0.0
220
0.0
230
1.0
  2
SOLID
 70
     1
 71
     1
 91
        1
 92
        0
 93
        1
 72
     4
 94
        3
 73
     0
 74
     1
 95
       17
 96
       13
 40
0.0
 40
0.0
 40
0.0
 40
0.0
 40
1.0
 40
1.0
 40
1.0
 40
2.0
 40
2.0
 40
2.0
 40
3.0
 40
3.0
 40
3.0
 40
4.0
 40
4.0
 40
4.0
 40
4.0
 10
280.0
 20
36.61877772209348
 10
280.8830640391904
 20
36.61877772209348
 10
281.6
 20
35.90184176128386
 10
281.6
 20
35.01877772209346
 10
281.6
 20
34.13571368290306
 10
280.8830640391904
 20
33.41877772209347
 10
280.0
 20
33.41877772209347
 10
279.1169359608096
 20
33.41877772209347
 10
278.4
 20
34.13571368290306
 10
278.4
 20
35.01877772209346
 10
278.4
 20
35.90184176128386
 10
279.1169359608096
 20
36.61877772209348
 10
280.0
 20
36.61877772209348
 97
        0
 97
        0
 75
     0
 76
     1
 98
        0
  0
SPLINE
  5
CC
330
1F
100
AcDbEntity
  8
0
  6
Continuous
 62
    18
420
        0
370
     9
100
AcDbSpline
210
0.0
220
0.0
230
1.0
 70
    11
 71
     3
 72
    17
 73
    13
 74
     0
 42
0.000000001
 43
0.0
 40
0.0
 40
0.0
 40
0.0
 40
0.0
 40
1.0
 40
1.0
 40
1.0
 40
2.0
 40
2.0
 40
2.0
 40
3.0
 40
3.0
 40
3.0
 40
4.0
 40
4.0
 40
4.0
 40
4.0
 10
280.0
 20
36.61877772209348
 30
0.0
 10
280.8830640391904
 20
36.61877772209348
 30
0.0
 10
281.6
 20
35.90184176128386
 30
0.0
 10
281.6
 20
35.01877772209346
 30
0.0
 10
281.6
 20
34.13571368290306
 30
0.0
 10
280.8830640391904
 20
33.41877772209347
 30
0.0
 10
280.0
 20
33.41877772209347
 30
0.0
 10
279.1169359608096
 20
33.41877772209347
 30
0.0
 10
278.4
 20
34.13571368290306
 30
0.0
 10
278.4
 20
35.01877772209346
 30
0.0
 10
278.4
 20
35.90184176128386
 30
0.0
 10
279.1169359608096
 20
36.61877772209348
 30
0.0
 10
280.0
 20
36.61877772209348
 30
0.0
  0
HATCH
  5
CD
330
1F
100
AcDbEntity
  8
0
 62
     7
420
 15461355
440
 33554687
100
AcDbHatch
 10
0.0
 20
0.0
 30
0.0
210
0.0
220
0.0
230
1.0
  2
SOLID
 70
     1
 71
     1
 91
        1
 92
        0
 93
        1
 72
     4
 94
        3
 73
     0
 74
     1
 95
       17
 96
       13
 40
0.0
 40
0.0
 40
0.0
 40
0.0
 40
1.0
 40
1.0
 40
1.0
 40
2.0
 40
2.0
 40
2.0
 40
3.0
 40
3.0
 40
3.0
 40
4.0
 40
4.0
 40
4.0
 40
4.0
 10
300.0
 20
36.61877772209348
 10
300.8830640391904
 20
36.61877772209348
 10
301.6
 20
35.90184176128386
 10
301.6
 20
35.01877772209346
 10
301.6
 20
34.13571368290306
 10
300.8830640391904
 20
33.41877772209347
 10
300.0
 20
33.41877772209347
 10
299.1169359608096
 20
33.41877772209347
 10
298.4
 20
34.13571368290306
 10
298.4
 20
35.01877772209346
 10
298.4
 20
35.90184176128386
 10
299.1169359608096
 20
36.61877772209348
 10
300.0
 20
36.61877772209348
 97
        0
 97
        0
 75
     0
 76
     1
 98
        0
  0
SPLINE
  5
CE
330
1F
100
AcDbEntity
  8
0
  6
Continuous
 62
    18
420
        0
370
     9
100
AcDbSpline
210
0.0
220
0.0
230
1.0
 70
    11
 71
     3
 72
    17
 73
    13
 74
     0
 42
0.000000001
 43
0.0
 40
0.0
 40
0.0
 40
0.0
 40
0.0
 40
1.0
 40
1.0
 40
1.0
 40
2.0
 40
2.0
 40
2.0
 40
3.0
 40
3.0
 40
3.0
 40
4.0
 40
4.0
 40
4.0
 40
4.0
 10
300.0
 20
36.61877772209348
 30
0.0
 10
300.8830640391904
 20
36.61877772209348
 30
0.0
 10
301.6
 20
35.90184176128386
 30
0.0
 10
301.6
 20
35.01877772209346
 30
0.0
 10
301.6
 20
34.13571368290306
 30
0.0
 10
300.8830640391904
 20
33.41877772209347
 30
0.0
 10
300.0
 20
33.41877772209347
 30
0.0
 10
299.1169359608096
 20
33.41877772209347
 30
0.0
 10
298.4
 20
34.13571368290306
 30
0.0
 10
298.4
 20
35.01877772209346
 30
0.0
 10
298.4
 20
35.90184176128386
 30
0.0
 10
299.1169359608096
 20
36.61877772209348
 30
0.0
 10
300.0
 20
36.61877772209348
 30
0.0
  0
HATCH
  5
CF
330
1F
100
AcDbEntity
  8
0
 62
     7
420
 15461355
440
 33554687
100
AcDbHatch
 10
0.0
 20
0.0
 30
0.0
210
0.0
220
0.0
230
1.0
  2
SOLID
 70
     1
 71
     1
 91
        1
 92
        0
 93
        1
 72
     4
 94
        3
 73
     0
 74
     1
 95
       17
 96
       13
 40
0.0
 40
0.0
 40
0.0
 40
0.0
 40
1.0
 40
1.0
 40
1.0
 40
2.0
 40
2.0
 40
2.0
 40
3.0
 40
3.0
 40
3.0
 40
4.0
 40
4.0
 40
4.0
 40
4.0
 10
320.0
 20
36.61877772209348
 10
320.8830640391904
 20
36.61877772209348
 10
321.6
 20
35.90184176128386
 10
321.6
 20
35.01877772209346
 10
321.6
 20
34.13571368290306
 10
320.8830640391904
 20
33.41877772209347
 10
320.0
 20
33.41877772209347
 10
319.1169359608096
 20
33.41877772209347
 10
318.4
 20
34.13571368290306
 10
318.4
 20
35.01877772209346
 10
318.4
 20
35.90184176128386
 10
319.1169359608096
 20
36.61877772209348
 10
320.0
 20
36.61877772209348
 97
        0
 97
        0
 75
     0
 76
     1
 98
        0
  0
SPLINE
  5
D0
330
1F
100
AcDbEntity
  8
0
  6
Continuous
 62
    18
420
        0
370
     9
100
AcDbSpline
210
0.0
220
0.0
230
1.0
 70
    11
 71
     3
 72
    17
 73
    13
 74
     0
 42
0.000000001
 43
0.0
 40
0.0
 40
0.0
 40
0.0
 40
0.0
 40
1.0
 40
1.0
 40
1.0
 40
2.0
 40
2.0
 40
2.0
 40
3.0
 40
3.0
 40
3.0
 40
4.0
 40
4.0
 40
4.0
 40
4.0
 10
320.0
 20
36.61877772209348
 30
0.0
 10
320.8830640391904
 20
36.61877772209348
 30
0.0
 10
321.6
 20
35.90184176128386
 30
0.0
 10
321.6
 20
35.01877772209346
 30
0.0
 10
321.6
 20
34.13571368290306
 30
0.0
 10
320.8830640391904
 20
33.41877772209347
 30
0.0
 10
320.0
 20
33.41877772209347
 30
0.0
 10
319.1169359608096
 20
33.41877772209347
 30
0.0
 10
318.4
 20
34.13571368290306
 30
0.0
 10
318.4
 20
35.01877772209346
 30
0.0
 10
318.4
 20
35.90184176128386
 30
0.0
 10
319.1169359608096
 20
36.61877772209348
 30
0.0
 10
320.0
 20
36.61877772209348
 30
0.0
  0
HATCH
  5
D1
330
1F
100
AcDbEntity
  8
0
 62
     7
420
 15461355
440
 33554687
100
AcDbHatch
 10
0.0
 20
0.0
 30
0.0
210
0.0
220
0.0
230
1.0
  2
SOLID
 70
     1
 71
     1
 91
        1
 92
        0
 93
        1
 72
     4
 94
        3
 73
     0
 74
     1
 95
       17
 96
       13
 40
0.0
 40
0.0
 40
0.0
 40
0.0
 40
1.0
 40
1.0
 40
1.0
 40
2.0
 40
2.0
 40
2.0
 40
3.0
 40
3.0
 40
3.0
 40
4.0
 40
4.0
 40
4.0
 40
4.0
 10
339.9999999999999
 20
36.61877772209348
 10
340.8830640391903
 20
36.61877772209348
 10
341.6
 20
35.90184176128386
 10
341.6
 20
35.01877772209346
 10
341.6
 20
34.13571368290306
 10
340.8830640391903
 20
33.41877772209347
 10
339.9999999999999
 20
33.41877772209347
 10
339.1169359608096
 20
33.41877772209347
 10
338.4
 20
34.13571368290306
 10
338.4
 20
35.01877772209346
 10
338.4
 20
35.90184176128386
 10
339.1169359608096
 20
36.61877772209348
 10
339.9999999999999
 20
36.61877772209348
 97
        0
 97
        0
 75
     0
 76
     1
 98
        0
  0
SPLINE
  5
D2
330
1F
100
AcDbEntity
  8
0
  6
Continuous
 62
    18
420
        0
370
     9
100
AcDbSpline
210
0.0
220
0.0
230
1.0
 70
    11
 71
     3
 72
    17
 73
    13
 74
     0
 42
0.000000001
 43
0.0
 40
0.0
 40
0.0
 40
0.0
 40
0.0
 40
1.0
 40
1.0
 40
1.0
 40
2.0
 40
2.0
 40
2.0
 40
3.0
 40
3.0
 40
3.0
 40
4.0
 40
4.0
 40
4.0
 40
4.0
 10
339.9999999999999
 20
36.61877772209348
 30
0.0
 10
340.8830640391903
 20
36.61877772209348
 30
0.0
 10
341.6
 20
35.90184176128386
 30
0.0
 10
341.6
 20
35.01877772209346
 30
0.0
 10
341.6
 20
34.13571368290306
 30
0.0
 10
340.8830640391903
 20
33.41877772209347
 30
0.0
 10
339.9999999999999
 20
33.41877772209347
 30
0.0
 10
339.1169359608096
 20
33.41877772209347
 30
0.0
 10
338.4
 20
34.13571368290306
 30
0.0
 10
338.4
 20
35.01877772209346
 30
0.0
 10
338.4
 20
35.90184176128386
 30
0.0
 10
339.1169359608096
 20
36.61877772209348
 30
0.0
 10
339.9999999999999
 20
36.61877772209348
 30
0.0
  0
HATCH
  5
D3
330
1F
100
AcDbEntity
  8
0
 62
     7
420
 15461355
440
 33554687
100
AcDbHatch
 10
0.0
 20
0.0
 30
0.0
210
0.0
220
0.0
230
1.0
  2
SOLID
 70
     1
 71
     1
 91
        1
 92
        0
 93
        1
 72
     4
 94
        3
 73
     0
 74
     1
 95
       17
 96
       13
 40
0.0
 40
0.0
 40
0.0
 40
0.0
 40
1.0
 40
1.0
 40
1.0
 40
2.0
 40
2.0
 40
2.0
 40
3.0
 40
3.0
 40
3.0
 40
4.0
 40
4.0
 40
4.0
 40
4.0
 10
359.9999999999999
 20
36.61877772209348
 10
360.8830640391903
 20
36.61877772209348
 10
361.6
 20
35.90184176128386
 10
361.6
 20
35.01877772209346
 10
361.6
 20
34.13571368290306
 10
360.8830640391903
 20
33.41877772209347
 10
359.9999999999999
 20
33.41877772209347
 10
359.1169359608095
 20
33.41877772209347
 10
358.4
 20
34.13571368290306
 10
358.4
 20
35.01877772209346
 10
358.4
 20
35.90184176128386
 10
359.1169359608095
 20
36.61877772209348
 10
359.9999999999999
 20
36.61877772209348
 97
        0
 97
        0
 75
     0
 76
     1
 98
        0
  0
SPLINE
  5
D4
330
1F
100
AcDbEntity
  8
0
  6
Continuous
 62
    18
420
        0
370
     9
100
AcDbSpline
210
0.0
220
0.0
230
1.0
 70
    11
 71
     3
 72
    17
 73
    13
 74
     0
 42
0.000000001
 43
0.0
 40
0.0
 40
0.0
 40
0.0
 40
0.0
 40
1.0
 40
1.0
 40
1.0
 40
2.0
 40
2.0
 40
2.0
 40
3.0
 40
3.0
 40
3.0
 40
4.0
 40
4.0
 40
4.0
 40
4.0
 10
359.9999999999999
 20
36.61877772209348
 30
0.0
 10
360.8830640391903
 20
36.61877772209348
 30
0.0
 10
361.6
 20
35.90184176128386
 30
0.0
 10
361.6
 20
35.01877772209346
 30
0.0
 10
361.6
 20
34.13571368290306
 30
0.0
 10
360.8830640391903
 20
33.41877772209347
 30
0.0
 10
359.9999999999999
 20
33.41877772209347
 30
0.0
 10
359.1169359608095
 20
33.41877772209347
 30
0.0
 10
358.4
 20
34.13571368290306
 30
0.0
 10
358.4
 20
35.01877772209346
 30
0.0
 10
358.4
 20
35.90184176128386
 30
0.0
 10
359.1169359608095
 20
36.61877772209348
 30
0.0
 10
359.9999999999999
 20
36.61877772209348
 30
0.0
  0
VIEWPORT
  5
D9
330
D5
100
AcDbEntity
 67
     1
  8
0
100
AcDbViewport
 10
128.5
 20
97.5
 30
0.0
 40
314.226
 41
222.18
 68
     1
 69
     1
 12
50.04233333333332
 22
170.0423333333333
 13
0.0
 23
0.0
 14
10.0
 24
10.0
 15
10.0
 25
10.0
 16
0.0
 26
0.0
 36
1.0
 17
0.0
 27
0.0
 37
0.0
 42
50.0
 43
0.0
 44
0.0
 45
222.18
 50
0.0
 51
0.0
 72
   100
 90
   557152
  1

281
     0
 71
     1
 74
     0
110
0.0
120
0.0
130
0.0
111
1.0
121
0.0
131
0.0
112
0.0
122
1.0
132
0.0
 79
     0
146
0.0
170
     0
 61
     5
348
2F
292
     1
282
     1
141
0.0
142
0.0
 63
   256
361
DA
  0
VIEWPORT
  5
DB
330
D5
100
AcDbEntity
 67
     1
  8
0
100
AcDbViewport
 10
170.0423333333333
 20
50.04233333333332
 30
0.0
 40
340.0846666666667
 41
100.0846666666666
 68
     2
 69
     2
 12
210.0
 22
50.04233333333335
 13
0.0
 23
0.0
 14
10.0
 24
10.0
 15
10.0
 25
10.0
 16
0.0
 26
0.0
 36
1.0
 17
0.0
 27
0.0
 37
0.0
 42
50.0
 43
0.0
 44
0.0
 45
100.0846666666666
 50
0.0
 51
0.0
 72
   100
 90
   557152
  1

281
     0
 71
     1
 74
     0
110
0.0
120
0.0
130
0.0
111
1.0
121
0.0
131
0.0
112
0.0
122
1.0
132
0.0
 79
     0
146
0.0
170
     0
 61
     5
348
2F
292
     1
282
     1
141
0.0
142
0.0
 63
   256
361
DC
  0
ENDSEC
  0
SECTION
  2
OBJECTS
  0
DICTIONARY
  5
C
330
0
100
AcDbDictionary
281
     1
  3
ACAD_DETAILVIEWSTYLE
350
E4
  3
ACAD_GROUP
350
D
  3
ACAD_LAYOUT
350
1A
  3
ACAD_MATERIAL
350
43
  3
ACAD_MLEADERSTYLE
350
5B
  3
ACAD_MLINESTYLE
350
17
  3
ACAD_PLOTSETTINGS
350
19
  3
ACAD_PLOTSTYLENAME
350
E
  3
ACAD_SCALELIST
350
47
  3
ACAD_SECTIONVIEWSTYLE
350
E5
  3
ACAD_TABLESTYLE
350
59
  3
ACAD_VISUALSTYLE
350
2A
  3
AcDbVariableDictionary
350
DD
  3
ACDB_RECOMPOSE_DATA
350
E1
  0
SUN
  5
5D
330
29
100
AcDbSun
 90
        1
290
     0
 63
     7
421
 16777215
 40
1.0
291
     1
 91
  2455826
 92
 54000000
292
     0
 70
     2
 71
   256
280
     1
  0
SUN
  5
DA
330
D9
100
AcDbSun
 90
        1
290
     0
 63
     7
421
 16777215
 40
1.0
291
     1
 91
  2455826
 92
 54000000
292
     0
 70
     2
 71
   256
280
     1
  0
SUN
  5
DC
330
DB
100
AcDbSun
 90
        1
290
     0
 63
     7
421
 16777215
 40
1.0
291
     1
 91
  2455826
 92
 54000000
292
     0
 70
     2
 71
   256
280
     1
  0
DICTIONARY
  5
E4
102
{ACAD_REACTORS
330
C
102
}
330
C
100
AcDbDictionary
281
     1
  0
DICTIONARY
  5
D
102
{ACAD_REACTORS
330
C
102
}
330
C
100
AcDbDictionary
281
     1
  0
DICTIONARY
  5
1A
102
{ACAD_REACTORS
330
C
102
}
330
C
100
AcDbDictionary
281
     1
  3
Layout1
350
D6
  3
Model
350
22
  0
DICTIONARY
  5
43
102
{ACAD_REACTORS
330
C
102
}
330
C
100
AcDbDictionary
281
     1
  3
ByBlock
350
45
  3
ByLayer
350
44
  3
Global
350
46
  0
DICTIONARY
  5
5B
102
{ACAD_REACTORS
330
C
102
}
330
C
100
AcDbDictionary
281
     1
  3
Standard
350
5C
  0
DICTIONARY
  5
17
102
{ACAD_REACTORS
330
C
102
}
330
C
100
AcDbDictionary
281
     1
  3
Standard
350
18
  0
DICTIONARY
  5
19
102
{ACAD_REACTORS
330
C
102
}
330
C
100
AcDbDictionary
281
     1
  0
ACDBDICTIONARYWDFLT
  5
E
102
{ACAD_REACTORS
330
C
102
}
330
C
100
AcDbDictionary
281
     1
  3
Normal
350
F
100
AcDbDictionaryWithDefault
340
F
  0
DICTIONARY
  5
47
102
{ACAD_REACTORS
330
C
102
}
330
C
100
AcDbDictionary
281
     1
  3
A0
350
48
  3
A1
350
49
  3
A2
350
4A
  3
A3
350
4B
  3
A4
350
4C
  3
A5
350
4D
  3
A6
350
4E
  3
A7
350
4F
  3
A8
350
50
  3
A9
350
51
  3
B0
350
52
  3
B1
350
53
  3
B2
350
54
  3
B3
350
55
  3
B4
350
56
  3
B5
350
57
  3
B6
350
58
  0
DICTIONARY
  5
E5
102
{ACAD_REACTORS
330
C
102
}
330
C
100
AcDbDictionary
281
     1
  0
DICTIONARY
  5
59
102
{ACAD_REACTORS
330
C
102
}
330
C
100
AcDbDictionary
281
     1
  3
Standard
350
5A
  0
DICTIONARY
  5
2A
102
{ACAD_REACTORS
330
C
102
}
330
C
100
AcDbDictionary
281
     1
  3
2dWireframe
350
2F
  3
Basic
350
32
  3
Brighten
350
36
  3
ColorChange
350
3A
  3
Conceptual
350
34
  3
Dim
350
35
  3
EdgeColorOff
350
3D
  3
Facepattern
350
39
  3
Flat
350
2B
  3
FlatWithEdges
350
2C
  3
Gouraud
350
2D
  3
GouraudWithEdges
350
2E
  3
Hidden
350
31
  3
JitterOff
350
3B
  3
Linepattern
350
38
  3
OverhangOff
350
3C
  3
Realistic
350
33
  3
Shaded
350
42
  3
Shaded with edges
350
41
  3
Shades of Gray
350
3E
  3
Sketchy
350
3F
  3
Thicken
350
37
  3
Wireframe
350
30
  3
X-Ray
350
40
  0
DICTIONARY
  5
DD
102
{ACAD_REACTORS
330
C
102
}
330
C
100
AcDbDictionary
281
     1
  3
CANNOSCALE
350
DE
  3
CENTEREXE
350
E6
  3
CENTERLTYPEFILE
350
E7
  3
CMLEADERSTYLE
350
E3
  3
CTABLESTYLE
350
E2
  0
XRECORD
  5
E1
102
{ACAD_REACTORS
330
C
102
}
330
C
100
AcDbXrecord
280
     1
 90
        1
330
5A
  0
LAYOUT
  5
D6
102
{ACAD_REACTORS
330
1A
102
}
330
1A
100
AcDbPlotSettings
  1

  2
none_device
  4
ISO_A4_(210.00_x_297.00_MM)
  6

 40
0.0
 41
0.0
 42
0.0
 43
0.0
 44
100.0846666666666
 45
340.0846666666667
 46
0.0
 47
0.0
 48
0.0
 49
0.0
140
0.0
141
0.0
142
1.0
143
1.0
 70
   688
 72
     1
 73
     3
 74
     5
  7

 75
    16
 76
     0
 77
     2
 78
   300
147
1.0
148
0.0
149
0.0
100
AcDbLayout
  1
Layout1
 70
     1
 71
     1
 10
-20.0
 20
-7.5
 11
277.0
 21
202.5
 12
0.0
 22
0.0
 32
0.0
 14
100.0846666666666
 24
340.0846666666667
 34
0.0
 15
0.0
 25
0.0
 35
0.0
146
0.0
 13
0.0
 23
0.0
 33
0.0
 16
1.0
 26
0.0
 36
0.0
 17
0.0
 27
1.0
 37
0.0
 76
     0
330
D5
331
D9
  0
LAYOUT
  5
22
102
{ACAD_REACTORS
330
1A
102
}
330
1A
100
AcDbPlotSettings
  1

  2
none_device
  4
Letter_(8.50_x_11.00_Inches)
  6

 40
6.35
 41
6.35
 42
6.35000508
 43
6.35000508
 44
215.9
 45
279.4
 46
0.0
 47
0.0
 48
0.0
 49
0.0
140
0.0
141
0.0
142
1.0
143
1.0
 70
  1712
 72
     1
 73
     0
 74
     0
  7

 75
     0
 76
     0
 77
     2
 78
   300
147
1.0
148
0.0
149
0.0
100
AcDbLayout
  1
Model
 70
     1
 71
     0
 10
0.0
 20
0.0
 11
420.0
 21
297.0
 12
0.0
 22
0.0
 32
0.0
 14
1.000000000000000E+20
 24
1.000000000000000E+20
 34
1.000000000000000E+20
 15
-1.000000000000000E+20
 25
-1.000000000000000E+20
 35
-1.000000000000000E+20
146
0.0
 13
0.0
 23
0.0
 33
0.0
 16
1.0
 26
0.0
 36
0.0
 17
0.0
 27
1.0
 37
0.0
 76
     0
330
1F
331
29
  0
MATERIAL
  5
45
102
{ACAD_REACTORS
330
43
102
}
330
43
100
AcDbMaterial
  1
ByBlock
 72
     1
 94
      127
  0
MATERIAL
  5
44
102
{ACAD_REACTORS
330
43
102
}
330
43
100
AcDbMaterial
  1
ByLayer
 72
     1
 94
      127
  0
MATERIAL
  5
46
102
{ACAD_REACTORS
330
43
102
}
330
43
100
AcDbMaterial
  1
Global
 72
     1
 94
      127
  0
MLEADERSTYLE
  5
5C
102
{ACAD_REACTORS
330
5B
102
}
330
5B
100
AcDbMLeaderStyle
179
     2
170
     2
171
     1
172
     0
 90
        2
 40
0.0
 41
0.0
173
     1
 91
-1056964608
340
14
 92
       -2
290
     1
 42
2.0
291
     1
 43
8.0
  3
Standard
341
0
 44
4.0
300

342
11
174
     1
178
     6
175
     1
176
     0
 93
-1056964608
 45
4.0
292
     0
297
     0
 46
4.0
343
0
 94
-1056964608
 47
1.0
 49
1.0
140
1.0
293
     1
141
0.0
294
     1
177
     0
142
1.0
295
     0
296
     0
143
3.75
271
     0
272
     9
273
     9
298
     0
  0
MLINESTYLE
  5
18
102
{ACAD_REACTORS
330
17
102
}
330
17
100
AcDbMlineStyle
  2
Standard
 70
     0
  3

 62
   256
 51
90.0
 52
90.0
 71
     2
 49
0.5
 62
   256
  6
BYLAYER
 49
-0.5
 62
   256
  6
BYLAYER
  0
ACDBPLACEHOLDER
  5
F
102
{ACAD_REACTORS
330
E
102
}
330
E
  0
SCALE
  5
48
102
{ACAD_REACTORS
330
47
102
}
330
47
100
AcDbScale
 70
     0
300
1:1
140
1.0
141
1.0
290
     1
  0
SCALE
  5
49
102
{ACAD_REACTORS
330
47
102
}
330
47
100
AcDbScale
 70
     0
300
1:2
140
1.0
141
2.0
290
     0
  0
SCALE
  5
4A
102
{ACAD_REACTORS
330
47
102
}
330
47
100
AcDbScale
 70
     0
300
1:4
140
1.0
141
4.0
290
     0
  0
SCALE
  5
4B
102
{ACAD_REACTORS
330
47
102
}
330
47
100
AcDbScale
 70
     0
300
1:5
140
1.0
141
5.0
290
     0
  0
SCALE
  5
4C
102
{ACAD_REACTORS
330
47
102
}
330
47
100
AcDbScale
 70
     0
300
1:8
140
1.0
141
8.0
290
     0
  0
SCALE
  5
4D
102
{ACAD_REACTORS
330
47
102
}
330
47
100
AcDbScale
 70
     0
300
1:10
140
1.0
141
10.0
290
     0
  0
SCALE
  5
4E
102
{ACAD_REACTORS
330
47
102
}
330
47
100
AcDbScale
 70
     0
300
1:16
140
1.0
141
16.0
290
     0
  0
SCALE
  5
4F
102
{ACAD_REACTORS
330
47
102
}
330
47
100
AcDbScale
 70
     0
300
1:20
140
1.0
141
20.0
290
     0
  0
SCALE
  5
50
102
{ACAD_REACTORS
330
47
102
}
330
47
100
AcDbScale
 70
     0
300
1:30
140
1.0
141
30.0
290
     0
  0
SCALE
  5
51
102
{ACAD_REACTORS
330
47
102
}
330
47
100
AcDbScale
 70
     0
300
1:40
140
1.0
141
40.0
290
     0
  0
SCALE
  5
52
102
{ACAD_REACTORS
330
47
102
}
330
47
100
AcDbScale
 70
     0
300
1:50
140
1.0
141
50.0
290
     0
  0
SCALE
  5
53
102
{ACAD_REACTORS
330
47
102
}
330
47
100
AcDbScale
 70
     0
300
1:100
140
1.0
141
100.0
290
     0
  0
SCALE
  5
54
102
{ACAD_REACTORS
330
47
102
}
330
47
100
AcDbScale
 70
     0
300
2:1
140
2.0
141
1.0
290
     0
  0
SCALE
  5
55
102
{ACAD_REACTORS
330
47
102
}
330
47
100
AcDbScale
 70
     0
300
4:1
140
4.0
141
1.0
290
     0
  0
SCALE
  5
56
102
{ACAD_REACTORS
330
47
102
}
330
47
100
AcDbScale
 70
     0
300
8:1
140
8.0
141
1.0
290
     0
  0
SCALE
  5
57
102
{ACAD_REACTORS
330
47
102
}
330
47
100
AcDbScale
 70
     0
300
10:1
140
10.0
141
1.0
290
     0
  0
SCALE
  5
58
102
{ACAD_REACTORS
330
47
102
}
330
47
100
AcDbScale
 70
     0
300
100:1
140
100.0
141
1.0
290
     0
  0
TABLESTYLE
  5
5A
102
{ACAD_REACTORS
330
59
102
}
102
{ACAD_XDICTIONARY
360
DF
102
}
330
59
100
AcDbTableStyle
  3
Standard
 70
     0
 71
     0
 40
0.06
 41
0.06
280
     0
281
     0
  7
Standard
140
4.5
170
     2
 62
     0
 63
   257
283
     0
 90
        4
 91
        0
  1

274
    -2
284
     1
 64
     0
275
    -2
285
     1
 65
     0
276
    -2
286
     1
 66
     0
277
    -2
287
     1
 67
     0
278
    -2
288
     1
 68
     0
279
    -2
289
     1
 69
     0
  7
Standard
140
6.0
170
     5
 62
     0
 63
   257
283
     0
 90
        4
 91
        0
  1

274
    -2
284
     1
 64
     0
275
    -2
285
     1
 65
     0
276
    -2
286
     1
 66
     0
277
    -2
287
     1
 67
     0
278
    -2
288
     1
 68
     0
279
    -2
289
     1
 69
     0
  7
Standard
140
4.5
170
     5
 62
     0
 63
   257
283
     0
 90
        4
 91
        0
  1

274
    -2
284
     1
 64
     0
275
    -2
285
     1
 65
     0
276
    -2
286
     1
 66
     0
277
    -2
287
     1
 67
     0
278
    -2
288
     1
 68
     0
279
    -2
289
     1
 69
     0
  0
VISUALSTYLE
  5
2F
102
{ACAD_REACTORS
330
2A
102
}
330
2A
100
AcDbVisualStyle
  2
2dWireframe
 70
     4
177
     3
291
     0
 70
    58
 90
        0
176
     1
 90
        2
176
     1
 90
        0
176
     1
 90
        0
176
     1
 40
0.6
176
     1
 40
30.0
176
     1
 62
     7
420
 16777215
176
     1
 90
        1
176
     1
 90
        4
176
     1
 62
     7
176
     1
 62
   257
176
     1
 90
        1
176
     1
 90
        1
176
     1
 40
1.0
176
     1
 90
        0
176
     1
 62
   257
176
     1
 40
1.0
176
     1
 90
        1
176
     1
 90
        6
176
     1
 90
        2
176
     1
 62
     7
176
     1
 90
        5
176
     1
 90
        0
176
     1
 90
        0
176
     1
290
     0
176
     1
 90
        1
176
     1
 40
0.0
176
     1
 90
        0
176
     1
290
     1
176
     1
290
     1
176
     1
290
     0
176
     1
290
     0
176
     1
290
     0
176
     1
290
     0
176
     1
290
     0
176
     1
290
     0
176
     1
290
     0
176
     1
 90
       50
176
     1
 40
0.0
176
     1
 40
1.0
176
     1
 90
        0
176
     1
 62
    18
420
        0
176
     1
 90
       50
176
     1
 90
        3
176
     1
 62
     5
420
      255
176
     1
290
     0
176
     1
 90
       50
176
     1
 90
       50
176
     1
 90
       50
176
     1
290
     0
176
     1
 90
       50
176
     1
 62
   256
176
     0
 40
1.0
176
     0
 90
        2
176
     1
  1
strokes_ogs.tif
176
     1
290
     0
176
     1
 40
1.0
176
     1
 40
1.0
176
     1
  0
VISUALSTYLE
  5
32
102
{ACAD_REACTORS
330
2A
102
}
330
2A
100
AcDbVisualStyle
  2
Basic
 70
     7
177
     3
291
     1
 70
    58
 90
        1
176
     1
 90
        0
176
     1
 90
        1
176
     1
 90
        0
176
     1
 40
0.6
176
     1
 40
30.0
176
     1
 62
     7
420
 16777215
176
     1
 90
        0
176
     1
 90
        4
176
     1
 62
     7
176
     1
 62
   257
176
     1
 90
        1
176
     1
 90
        1
176
     1
 40
1.0
176
     1
 90
        8
176
     1
 62
     7
176
     1
 40
1.0
176
     1
 90
        1
176
     1
 90
        6
176
     1
 90
        2
176
     1
 62
     7
176
     1
 90
        5
176
     1
 90
        0
176
     1
 90
        0
176
     1
290
     0
176
     1
 90
        1
176
     1
 40
0.0
176
     1
 90
        0
176
     1
290
     0
176
     1
290
     1
176
     1
290
     1
176
     1
290
     0
176
     1
290
     0
176
     1
290
     0
176
     1
290
     0
176
     1
290
     0
176
     1
290
     0
176
     1
 90
       50
176
     1
 40
0.0
176
     1
 40
1.0
176
     1
 90
        0
176
     1
 62
    18
420
        0
176
     1
 90
       50
176
     1
 90
        3
176
     1
 62
     5
420
      255
176
     1
290
     0
176
     1
 90
       50
176
     1
 90
       50
176
     1
 90
       50
176
     1
290
     0
176
     1
 90
       50
176
     1
 62
   256
176
     0
 40
1.0
176
     0
 90
        2
176
     1
  1
strokes_ogs.tif
176
     1
290
     0
176
     1
 40
1.0
176
     1
 40
1.0
176
     1
  0
VISUALSTYLE
  5
36
102
{ACAD_REACTORS
330
2A
102
}
330
2A
100
AcDbVisualStyle
  2
Brighten
 70
    12
177
     3
291
     1
 70
    58
 90
        2
176
     1
 90
        2
176
     1
 90
        0
176
     1
 90
        0
176
     1
 40
0.6
176
     1
 40
30.0
176
     1
 62
     7
420
 16777215
176
     1
 90
        1
176
     1
 90
        4
176
     1
 62
     7
176
     1
 62
   257
176
     1
 90
        1
176
     1
 90
        1
176
     1
 40
1.0
176
     1
 90
        8
176
     1
 62
     7
176
     1
 40
1.0
176
     1
 90
        1
176
     1
 90
        6
176
     1
 90
        2
176
     1
 62
     7
176
     1
 90
        5
176
     1
 90
        0
176
     1
 90
        0
176
     1
290
     0
176
     1
 90
        1
176
     1
 40
50.0
176
     1
 90
        0
176
     1
290
     0
176
     1
290
     1
176
     1
290
     1
176
     1
290
     0
176
     1
290
     0
176
     1
290
     0
176
     1
290
     0
176
     1
290
     0
176
     1
290
     0
176
     1
 90
       50
176
     1
 40
0.0
176
     1
 40
1.0
176
     1
 90
        0
176
     1
 62
    18
420
        0
176
     1
 90
       50
176
     1
 90
        3
176
     1
 62
     5
420
      255
176
     1
290
     0
176
     1
 90
       50
176
     1
 90
       50
176
     1
 90
       50
176
     1
290
     0
176
     1
 90
       50
176
     1
 62
   256
176
     0
 40
1.0
176
     0
 90
        2
176
     1
  1
strokes_ogs.tif
176
     1
290
     0
176
     1
 40
1.0
176
     1
 40
1.0
176
     1
  0
VISUALSTYLE
  5
3A
102
{ACAD_REACTORS
330
2A
102
}
330
2A
100
AcDbVisualStyle
  2
ColorChange
 70
    16
177
     3
291
     1
 70
    58
 90
        2
176
     1
 90
        2
176
     1
 90
        3
176
     1
 90
        0
176
     1
 40
0.6
176
     1
 40
30.0
176
     1
 62
     8
420
  8421504
176
     1
 90
        1
176
     1
 90
        4
176
     1
 62
     7
176
     1
 62
   257
176
     1
 90
        1
176
     1
 90
        1
176
     1
 40
1.0
176
     1
 90
        8
176
     1
 62
     8
420
  8421504
176
     1
 40
1.0
176
     1
 90
        1
176
     1
 90
        6
176
     1
 90
        2
176
     1
 62
     7
176
     1
 90
        5
176
     1
 90
        0
176
     1
 90
        0
176
     1
290
     0
176
     1
 90
        1
176
     1
 40
0.0
176
     1
 90
        0
176
     1
290
     0
176
     1
290
     1
176
     1
290
     1
176
     1
290
     0
176
     1
290
     0
176
     1
290
     0
176
     1
290
     0
176
     1
290
     0
176
     1
290
     0
176
     1
 90
       50
176
     1
 40
0.0
176
     1
 40
1.0
176
     1
 90
        0
176
     1
 62
    18
420
        0
176
     1
 90
       50
176
     1
 90
        3
176
     1
 62
     5
420
      255
176
     1
290
     0
176
     1
 90
       50
176
     1
 90
       50
176
     1
 90
       50
176
     1
290
     0
176
     1
 90
       50
176
     1
 62
   256
176
     0
 40
1.0
176
     0
 90
        2
176
     1
  1
strokes_ogs.tif
176
     1
290
     0
176
     1
 40
1.0
176
     1
 40
1.0
176
     1
  0
VISUALSTYLE
  5
34
102
{ACAD_REACTORS
330
2A
102
}
330
2A
100
AcDbVisualStyle
  2
Conceptual
 70
     9
177
     3
291
     0
 70
    58
 90
        3
176
     1
 90
        2
176
     1
 90
        0
176
     1
 90
        0
176
     1
 40
0.6
176
     1
 40
30.0
176
     1
 62
     7
420
 16777215
176
     1
 90
        2
176
     1
 90
        2
176
     1
 62
     7
176
     1
 62
   257
176
     1
 90
        1
176
     1
 90
        1
176
     1
 40
179.0
176
     1
 90
        8
176
     1
 62
     7
176
     1
 40
1.0
176
     1
 90
        1
176
     1
 90
        6
176
     1
 90
        2
176
     1
 62
     7
176
     1
 90
        3
176
     1
 90
        0
176
     1
 90
        0
176
     1
290
     0
176
     1
 90
        1
176
     1
 40
0.0
176
     1
 90
        0
176
     1
290
     0
176
     1
290
     1
176
     1
290
     1
176
     1
290
     0
176
     1
290
     0
176
     1
290
     0
176
     1
290
     0
176
     1
290
     0
176
     1
290
     0
176
     1
 90
       50
176
     1
 40
0.0
176
     1
 40
1.0
176
     1
 90
        0
176
     1
 62
    18
420
        0
176
     1
 90
       50
176
     1
 90
        3
176
     1
 62
     5
420
      255
176
     1
290
     0
176
     1
 90
       50
176
     1
 90
       50
176
     1
 90
       50
176
     1
290
     0
176
     1
 90
       50
176
     1
 62
   256
176
     0
 40
1.0
176
     0
 90
        2
176
     1
  1
strokes_ogs.tif
176
     1
290
     0
176
     1
 40
1.0
176
     1
 40
1.0
176
     1
  0
VISUALSTYLE
  5
35
102
{ACAD_REACTORS
330
2A
102
}
330
2A
100
AcDbVisualStyle
  2
Dim
 70
    11
177
     3
291
     1
 70
    58
 90
        2
176
     1
 90
        2
176
     1
 90
        0
176
     1
 90
        0
176
     1
 40
0.6
176
     1
 40
30.0
176
     1
 62
     7
420
 16777215
176
     1
 90
        1
176
     1
 90
        4
176
     1
 62
     7
176
     1
 62
   257
176
     1
 90
        1
176
     1
 90
        1
176
     1
 40
1.0
176
     1
 90
        8
176
     1
 62
     7
176
     1
 40
1.0
176
     1
 90
        1
176
     1
 90
        6
176
     1
 90
        2
176
     1
 62
     7
176
     1
 90
        5
176
     1
 90
        0
176
     1
 90
        0
176
     1
290
     0
176
     1
 90
        1
176
     1
 40
-50.0
176
     1
 90
        0
176
     1
290
     0
176
     1
290
     1
176
     1
290
     1
176
     1
290
     0
176
     1
290
     0
176
     1
290
     0
176
     1
290
     0
176
     1
290
     0
176
     1
290
     0
176
     1
 90
       50
176
     1
 40
0.0
176
     1
 40
1.0
176
     1
 90
        0
176
     1
 62
    18
420
        0
176
     1
 90
       50
176
     1
 90
        3
176
     1
 62
     5
420
      255
176
     1
290
     0
176
     1
 90
       50
176
     1
 90
       50
176
     1
 90
       50
176
     1
290
     0
176
     1
 90
       50
176
     1
 62
   256
176
     0
 40
1.0
176
     0
 90
        2
176
     1
  1
strokes_ogs.tif
176
     1
290
     0
176
     1
 40
1.0
176
     1
 40
1.0
176
     1
  0
VISUALSTYLE
  5
3D
102
{ACAD_REACTORS
330
2A
102
}
330
2A
100
AcDbVisualStyle
  2
EdgeColorOff
 70
    22
177
     3
291
     1
 70
    58
 90
        2
176
     0
 90
        2
176
     0
 90
        0
176
     0
 90
        0
176
     0
 40
0.6
176
     0
 40
30.0
176
     0
 62
     7
420
 16777215
176
     0
 90
        1
176
     0
 90
        4
176
     0
 62
     7
176
     0
 62
   257
176
     0
 90
        1
176
     0
 90
        1
176
     0
 40
1.0
176
     0
 90
        8
176
     2
 62
     7
176
     0
 40
1.0
176
     0
 90
        1
176
     0
 90
        6
176
     0
 90
        2
176
     0
 62
     7
176
     0
 90
        5
176
     0
 90
        0
176
     0
 90
        0
176
     0
290
     0
176
     0
 90
        1
176
     0
 40
0.0
176
     0
 90
        0
176
     0
290
     0
176
     0
290
     1
176
     0
290
     1
176
     0
290
     0
176
     0
290
     0
176
     0
290
     0
176
     0
290
     0
176
     0
290
     0
176
     0
290
     0
176
     0
 90
       50
176
     0
 40
0.0
176
     0
 40
1.0
176
     0
 90
        0
176
     0
 62
    18
420
        0
176
     0
 90
       50
176
     0
 90
        3
176
     0
 62
     5
420
      255
176
     0
290
     0
176
     0
 90
       50
176
     0
 90
       50
176
     0
 90
       50
176
     0
290
     0
176
     0
 90
       50
176
     0
 62
   256
176
     0
 40
1.0
176
     0
 90
        2
176
     0
  1
strokes_ogs.tif
176
     0
290
     0
176
     0
 40
1.0
176
     0
 40
1.0
176
     0
  0
VISUALSTYLE
  5
39
102
{ACAD_REACTORS
330
2A
102
}
330
2A
100
AcDbVisualStyle
  2
Facepattern
 70
    15
177
     3
291
     1
 70
    58
 90
        2
176
     1
 90
        2
176
     1
 90
        0
176
     1
 90
        0
176
     1
 40
0.6
176
     1
 40
30.0
176
     1
 62
     7
420
 16777215
176
     1
 90
        1
176
     1
 90
        4
176
     1
 62
     7
176
     1
 62
   257
176
     1
 90
        1
176
     1
 90
        1
176
     1
 40
1.0
176
     1
 90
        8
176
     1
 62
     7
176
     1
 40
1.0
176
     1
 90
        1
176
     1
 90
        6
176
     1
 90
        2
176
     1
 62
     7
176
     1
 90
        5
176
     1
 90
        0
176
     1
 90
        0
176
     1
290
     0
176
     1
 90
        1
176
     1
 40
0.0
176
     1
 90
        0
176
     1
290
     0
176
     1
290
     1
176
     1
290
     1
176
     1
290
     0
176
     1
290
     0
176
     1
290
     0
176
     1
290
     0
176
     1
290
     0
176
     1
290
     0
176
     1
 90
       50
176
     1
 40
0.0
176
     1
 40
1.0
176
     1
 90
        0
176
     1
 62
    18
420
        0
176
     1
 90
       50
176
     1
 90
        3
176
     1
 62
     5
420
      255
176
     1
290
     0
176
     1
 90
       50
176
     1
 90
       50
176
     1
 90
       50
176
     1
290
     0
176
     1
 90
       50
176
     1
 62
   256
176
     0
 40
1.0
176
     0
 90
        2
176
     1
  1
strokes_ogs.tif
176
     1
290
     0
176
     1
 40
1.0
176
     1
 40
1.0
176
     1
  0
VISUALSTYLE
  5
2B
102
{ACAD_REACTORS
330
2A
102
}
330
2A
100
AcDbVisualStyle
  2
Flat
 70
     0
177
     3
291
     1
 70
    58
 90
        2
176
     1
 90
        1
176
     1
 90
        1
176
     1
 90
        2
176
     1
 40
0.6
176
     1
 40
30.0
176
     1
 62
     7
420
 16777215
176
     1
 90
        0
176
     1
 90
        0
176
     1
 62
     7
176
     1
 62
   257
176
     1
 90
        1
176
     1
 90
        1
176
     1
 40
1.0
176
     1
 90
        8
176
     1
 62
     7
176
     1
 40
1.0
176
     1
 90
        1
176
     1
 90
        6
176
     1
 90
        2
176
     1
 62
     7
176
     1
 90
        5
176
     1
 90
        0
176
     1
 90
        0
176
     1
290
     0
176
     1
 90
       13
176
     1
 40
0.0
176
     1
 90
        0
176
     1
290
     0
176
     1
290
     1
176
     1
290
     1
176
     1
290
     0
176
     1
290
     0
176
     1
290
     0
176
     1
290
     0
176
     1
290
     0
176
     1
290
     0
176
     1
 90
       50
176
     1
 40
0.0
176
     1
 40
1.0
176
     1
 90
        0
176
     1
 62
    18
420
        0
176
     1
 90
       50
176
     1
 90
        3
176
     1
 62
     5
420
      255
176
     1
290
     0
176
     1
 90
       50
176
     1
 90
       50
176
     1
 90
       50
176
     1
290
     0
176
     1
 90
       50
176
     1
 62
   256
176
     0
 40
1.0
176
     0
 90
        2
176
     1
  1
strokes_ogs.tif
176
     1
290
     0
176
     1
 40
1.0
176
     1
 40
1.0
176
     1
  0
VISUALSTYLE
  5
2C
102
{ACAD_REACTORS
330
2A
102
}
330
2A
100
AcDbVisualStyle
  2
FlatWithEdges
 70
     1
177
     3
291
     1
 70
    58
 90
        2
176
     1
 90
        1
176
     1
 90
        1
176
     1
 90
        2
176
     1
 40
0.6
176
     1
 40
30.0
176
     1
 62
     7
420
 16777215
176
     1
 90
        1
176
     1
 90
        0
176
     1
 62
     7
176
     1
 62
   257
176
     1
 90
        1
176
     1
 90
        1
176
     1
 40
1.0
176
     1
 90
        0
176
     1
 62
   257
176
     1
 40
1.0
176
     1
 90
        1
176
     1
 90
        6
176
     1
 90
        2
176
     1
 62
     7
176
     1
 90
        5
176
     1
 90
        0
176
     1
 90
        0
176
     1
290
     0
176
     1
 90
       13
176
     1
 40
0.0
176
     1
 90
        0
176
     1
290
     0
176
     1
290
     1
176
     1
290
     1
176
     1
290
     0
176
     1
290
     0
176
     1
290
     0
176
     1
290
     0
176
     1
290
     0
176
     1
290
     0
176
     1
 90
       50
176
     1
 40
0.0
176
     1
 40
1.0
176
     1
 90
        0
176
     1
 62
    18
420
        0
176
     1
 90
       50
176
     1
 90
        3
176
     1
 62
     5
420
      255
176
     1
290
     0
176
     1
 90
       50
176
     1
 90
       50
176
     1
 90
       50
176
     1
290
     0
176
     1
 90
       50
176
     1
 62
   256
176
     0
 40
1.0
176
     0
 90
        2
176
     1
  1
strokes_ogs.tif
176
     1
290
     0
176
     1
 40
1.0
176
     1
 40
1.0
176
     1
  0
VISUALSTYLE
  5
2D
102
{ACAD_REACTORS
330
2A
102
}
330
2A
100
AcDbVisualStyle
  2
Gouraud
 70
     2
177
     3
291
     1
 70
    58
 90
        2
176
     1
 90
        2
176
     1
 90
        1
176
     1
 90
        2
176
     1
 40
0.6
176
     1
 40
30.0
176
     1
 62
     7
420
 16777215
176
     1
 90
        0
176
     1
 90
        0
176
     1
 62
     7
176
     1
 62
   257
176
     1
 90
        1
176
     1
 90
        1
176
     1
 40
1.0
176
     1
 90
        0
176
     1
 62
     7
176
     1
 40
1.0
176
     1
 90
        1
176
     1
 90
        6
176
     1
 90
        2
176
     1
 62
     7
176
     1
 90
        5
176
     1
 90
        0
176
     1
 90
        0
176
     1
290
     0
176
     1
 90
       13
176
     1
 40
0.0
176
     1
 90
        0
176
     1
290
     0
176
     1
290
     1
176
     1
290
     1
176
     1
290
     0
176
     1
290
     0
176
     1
290
     0
176
     1
290
     0
176
     1
290
     0
176
     1
290
     0
176
     1
 90
       50
176
     1
 40
0.0
176
     1
 40
1.0
176
     1
 90
        0
176
     1
 62
    18
420
        0
176
     1
 90
       50
176
     1
 90
        3
176
     1
 62
     5
420
      255
176
     1
290
     0
176
     1
 90
       50
176
     1
 90
       50
176
     1
 90
       50
176
     1
290
     0
176
     1
 90
       50
176
     1
 62
   256
176
     0
 40
1.0
176
     0
 90
        2
176
     1
  1
strokes_ogs.tif
176
     1
290
     0
176
     1
 40
1.0
176
     1
 40
1.0
176
     1
  0
VISUALSTYLE
  5
2E
102
{ACAD_REACTORS
330
2A
102
}
330
2A
100
AcDbVisualStyle
  2
GouraudWithEdges
 70
     3
177
     3
291
     1
 70
    58
 90
        2
176
     1
 90
        2
176
     1
 90
        1
176
     1
 90
        2
176
     1
 40
0.6
176
     1
 40
30.0
176
     1
 62
     7
420
 16777215
176
     1
 90
        1
176
     1
 90
        0
176
     1
 62
     7
176
     1
 62
   257
176
     1
 90
        1
176
     1
 90
        1
176
     1
 40
1.0
176
     1
 90
        0
176
     1
 62
   257
176
     1
 40
1.0
176
     1
 90
        1
176
     1
 90
        6
176
     1
 90
        2
176
     1
 62
     7
176
     1
 90
        5
176
     1
 90
        0
176
     1
 90
        0
176
     1
290
     0
176
     1
 90
       13
176
     1
 40
0.0
176
     1
 90
        0
176
     1
290
     0
176
     1
290
     1
176
     1
290
     1
176
     1
290
     0
176
     1
290
     0
176
     1
290
     0
176
     1
290
     0
176
     1
290
     0
176
     1
290
     0
176
     1
 90
       50
176
     1
 40
0.0
176
     1
 40
1.0
176
     1
 90
        0
176
     1
 62
    18
420
        0
176
     1
 90
       50
176
     1
 90
        3
176
     1
 62
     5
420
      255
176
     1
290
     0
176
     1
 90
       50
176
     1
 90
       50
176
     1
 90
       50
176
     1
290
     0
176
     1
 90
       50
176
     1
 62
   256
176
     0
 40
1.0
176
     0
 90
        2
176
     1
  1
strokes_ogs.tif
176
     1
290
     0
176
     1
 40
1.0
176
     1
 40
1.0
176
     1
  0
VISUALSTYLE
  5
31
102
{ACAD_REACTORS
330
2A
102
}
330
2A
100
AcDbVisualStyle
  2
Hidden
 70
     6
177
     3
291
     0
 70
    58
 90
        1
176
     1
 90
        2
176
     1
 90
        2
176
     1
 90
        0
176
     1
 40
0.6
176
     1
 40
30.0
176
     1
 62
     7
420
 16777215
176
     1
 90
        2
176
     1
 90
        2
176
     1
 62
     7
176
     1
 62
   257
176
     1
 90
        2
176
     1
 90
        1
176
     1
 40
40.0
176
     1
 90
        0
176
     1
 62
   257
176
     1
 40
1.0
176
     1
 90
        1
176
     1
 90
        6
176
     1
 90
        2
176
     1
 62
     7
176
     1
 90
        3
176
     1
 90
        0
176
     1
 90
        0
176
     1
290
     0
176
     1
 90
        1
176
     1
 40
0.0
176
     1
 90
        0
176
     1
290
     0
176
     1
290
     1
176
     1
290
     1
176
     1
290
     0
176
     1
290
     0
176
     1
290
     0
176
     1
290
     0
176
     1
290
     0
176
     1
290
     0
176
     1
 90
       50
176
     1
 40
0.0
176
     1
 40
1.0
176
     1
 90
        0
176
     1
 62
    18
420
        0
176
     1
 90
       50
176
     1
 90
        3
176
     1
 62
     5
420
      255
176
     1
290
     0
176
     1
 90
       50
176
     1
 90
       50
176
     1
 90
       50
176
     1
290
     0
176
     1
 90
       50
176
     1
 62
   256
176
     0
 40
1.0
176
     0
 90
        2
176
     1
  1
strokes_ogs.tif
176
     1
290
     0
176
     1
 40
1.0
176
     1
 40
1.0
176
     1
  0
VISUALSTYLE
  5
3B
102
{ACAD_REACTORS
330
2A
102
}
330
2A
100
AcDbVisualStyle
  2
JitterOff
 70
    20
177
     3
291
     1
 70
    58
 90
        2
176
     0
 90
        2
176
     0
 90
        0
176
     0
 90
        0
176
     0
 40
0.6
176
     0
 40
30.0
176
     0
 62
     7
420
 16777215
176
     0
 90
        1
176
     0
 90
        4
176
     0
 62
     7
176
     0
 62
   257
176
     0
 90
        1
176
     0
 90
        1
176
     0
 40
1.0
176
     0
 90
       10
176
     2
 62
     7
176
     0
 40
1.0
176
     0
 90
        1
176
     0
 90
        6
176
     0
 90
        2
176
     0
 62
     7
176
     0
 90
        5
176
     0
 90
        0
176
     0
 90
        0
176
     0
290
     0
176
     0
 90
        1
176
     0
 40
0.0
176
     0
 90
        0
176
     0
290
     0
176
     0
290
     1
176
     0
290
     1
176
     0
290
     0
176
     0
290
     0
176
     0
290
     0
176
     0
290
     0
176
     0
290
     0
176
     0
290
     0
176
     0
 90
       50
176
     0
 40
0.0
176
     0
 40
1.0
176
     0
 90
        0
176
     0
 62
    18
420
        0
176
     0
 90
       50
176
     0
 90
        3
176
     0
 62
     5
420
      255
176
     0
290
     0
176
     0
 90
       50
176
     0
 90
       50
176
     0
 90
       50
176
     0
290
     0
176
     0
 90
       50
176
     0
 62
   256
176
     0
 40
1.0
176
     0
 90
        2
176
     0
  1
strokes_ogs.tif
176
     0
290
     0
176
     0
 40
1.0
176
     0
 40
1.0
176
     0
  0
VISUALSTYLE
  5
38
102
{ACAD_REACTORS
330
2A
102
}
330
2A
100
AcDbVisualStyle
  2
Linepattern
 70
    14
177
     3
291
     1
 70
    58
 90
        2
176
     1
 90
        2
176
     1
 90
        0
176
     1
 90
        0
176
     1
 40
0.6
176
     1
 40
30.0
176
     1
 62
     7
420
 16777215
176
     1
 90
        1
176
     1
 90
        4
176
     1
 62
     7
176
     1
 62
   257
176
     1
 90
        7
176
     1
 90
        7
176
     1
 40
1.0
176
     1
 90
        8
176
     1
 62
     7
176
     1
 40
1.0
176
     1
 90
        1
176
     1
 90
        6
176
     1
 90
        2
176
     1
 62
     7
176
     1
 90
        5
176
     1
 90
        0
176
     1
 90
        0
176
     1
290
     0
176
     1
 90
        1
176
     1
 40
0.0
176
     1
 90
        0
176
     1
290
     0
176
     1
290
     1
176
     1
290
     1
176
     1
290
     0
176
     1
290
     0
176
     1
290
     0
176
     1
290
     0
176
     1
290
     0
176
     1
290
     0
176
     1
 90
       50
176
     1
 40
0.0
176
     1
 40
1.0
176
     1
 90
        0
176
     1
 62
    18
420
        0
176
     1
 90
       50
176
     1
 90
        3
176
     1
 62
     5
420
      255
176
     1
290
     0
176
     1
 90
       50
176
     1
 90
       50
176
     1
 90
       50
176
     1
290
     0
176
     1
 90
       50
176
     1
 62
   256
176
     0
 40
1.0
176
     0
 90
        2
176
     1
  1
strokes_ogs.tif
176
     1
290
     0
176
     1
 40
1.0
176
     1
 40
1.0
176
     1
  0
VISUALSTYLE
  5
3C
102
{ACAD_REACTORS
330
2A
102
}
330
2A
100
AcDbVisualStyle
  2
OverhangOff
 70
    21
177
     3
291
     1
 70
    58
 90
        2
176
     0
 90
        2
176
     0
 90
        0
176
     0
 90
        0
176
     0
 40
0.6
176
     0
 40
30.0
176
     0
 62
     7
420
 16777215
176
     0
 90
        1
176
     0
 90
        4
176
     0
 62
     7
176
     0
 62
   257
176
     0
 90
        1
176
     0
 90
        1
176
     0
 40
1.0
176
     0
 90
        9
176
     2
 62
     7
176
     0
 40
1.0
176
     0
 90
        1
176
     0
 90
        6
176
     0
 90
        2
176
     0
 62
     7
176
     0
 90
        5
176
     0
 90
        0
176
     0
 90
        0
176
     0
290
     0
176
     0
 90
        1
176
     0
 40
0.0
176
     0
 90
        0
176
     0
290
     0
176
     0
290
     1
176
     0
290
     1
176
     0
290
     0
176
     0
290
     0
176
     0
290
     0
176
     0
290
     0
176
     0
290
     0
176
     0
290
     0
176
     0
 90
       50
176
     0
 40
0.0
176
     0
 40
1.0
176
     0
 90
        0
176
     0
 62
    18
420
        0
176
     0
 90
       50
176
     0
 90
        3
176
     0
 62
     5
420
      255
176
     0
290
     0
176
     0
 90
       50
176
     0
 90
       50
176
     0
 90
       50
176
     0
290
     0
176
     0
 90
       50
176
     0
 62
   256
176
     0
 40
1.0
176
     0
 90
        2
176
     0
  1
strokes_ogs.tif
176
     0
290
     0
176
     0
 40
1.0
176
     0
 40
1.0
176
     0
  0
VISUALSTYLE
  5
33
102
{ACAD_REACTORS
330
2A
102
}
330
2A
100
AcDbVisualStyle
  2
Realistic
 70
     8
177
     3
291
     0
 70
    58
 90
        2
176
     1
 90
        3
176
     1
 90
        0
176
     1
 90
        2
176
     1
 40
0.6
176
     1
 40
30.0
176
     1
 62
     7
420
 16777215
176
     1
 90
        0
176
     1
 90
        0
176
     1
 62
     7
176
     1
 62
   257
176
     1
 90
        1
176
     1
 90
        1
176
     1
 40
1.0
176
     1
 90
        8
176
     1
 62
   257
176
     1
 40
1.0
176
     1
 90
        1
176
     1
 90
        6
176
     1
 90
        2
176
     1
 62
     7
176
     1
 90
        3
176
     1
 90
        0
176
     1
 90
        0
176
     1
290
     0
176
     1
 90
       13
176
     1
 40
0.0
176
     1
 90
        0
176
     1
290
     0
176
     1
290
     1
176
     1
290
     1
176
     1
290
     0
176
     1
290
     0
176
     1
290
     0
176
     1
290
     0
176
     1
290
     0
176
     1
290
     0
176
     1
 90
       50
176
     1
 40
0.0
176
     1
 40
1.0
176
     1
 90
        0
176
     1
 62
    18
420
        0
176
     1
 90
       50
176
     1
 90
        3
176
     1
 62
     5
420
      255
176
     1
290
     0
176
     1
 90
       50
176
     1
 90
       50
176
     1
 90
       50
176
     1
290
     0
176
     1
 90
       50
176
     1
 62
   256
176
     0
 40
1.0
176
     0
 90
        2
176
     1
  1
strokes_ogs.tif
176
     1
290
     0
176
     1
 40
1.0
176
     1
 40
1.0
176
     1
  0
VISUALSTYLE
  5
42
102
{ACAD_REACTORS
330
2A
102
}
330
2A
100
AcDbVisualStyle
  2
Shaded
 70
    27
177
     3
291
     0
 70
    58
 90
        2
176
     1
 90
        2
176
     1
 90
        1
176
     1
 90
        2
176
     1
 40
0.6
176
     1
 40
30.0
176
     1
 62
     7
420
 16777215
176
     1
 90
        0
176
     1
 90
        4
176
     1
 62
     7
176
     1
 62
   257
176
     1
 90
        1
176
     1
 90
        1
176
     1
 40
1.0
176
     1
 90
        8
176
     1
 62
   257
176
     1
 40
1.0
176
     1
 90
        1
176
     1
 90
        6
176
     1
 90
        2
176
     1
 62
     8
420
  7895160
176
     1
 90
        3
176
     1
 90
        0
176
     1
 90
        0
176
     1
290
     0
176
     1
 90
        5
176
     1
 40
0.0
176
     1
 90
        0
176
     1
290
     0
176
     1
290
     1
176
     1
290
     1
176
     1
290
     0
176
     1
290
     0
176
     1
290
     0
176
     1
290
     0
176
     1
290
     0
176
     1
290
     0
176
     1
 90
       50
176
     1
 40
0.0
176
     1
 40
1.0
176
     1
 90
        0
176
     1
 62
    18
420
        0
176
     1
 90
       50
176
     1
 90
        3
176
     1
 62
     5
420
      255
176
     1
290
     0
176
     1
 90
       50
176
     1
 90
       50
176
     1
 90
       50
176
     1
290
     0
176
     1
 90
       50
176
     1
 62
   256
176
     0
 40
1.0
176
     0
 90
        2
176
     1
  1
strokes_ogs.tif
176
     1
290
     0
176
     1
 40
1.0
176
     1
 40
1.0
176
     1
  0
VISUALSTYLE
  5
41
102
{ACAD_REACTORS
330
2A
102
}
330
2A
100
AcDbVisualStyle
  2
Shaded with edges
 70
    26
177
     3
291
     0
 70
    58
 90
        2
176
     1
 90
        2
176
     1
 90
        1
176
     1
 90
        2
176
     1
 40
0.6
176
     1
 40
30.0
176
     1
 62
     7
420
 16777215
176
     1
 90
        1
176
     1
 90
       10
176
     1
 62
     7
176
     1
 62
   257
176
     1
 90
        2
176
     1
 90
        1
176
     1
 40
1.0
176
     1
 90
        8
176
     1
 62
   257
176
     1
 40
1.0
176
     1
 90
        1
176
     1
 90
        6
176
     1
 90
        2
176
     1
 62
     7
176
     1
 90
        3
176
     1
 90
        0
176
     1
 90
        0
176
     1
290
     0
176
     1
 90
        5
176
     1
 40
0.0
176
     1
 90
        0
176
     1
290
     0
176
     1
290
     1
176
     1
290
     1
176
     1
290
     0
176
     1
290
     0
176
     1
290
     0
176
     1
290
     0
176
     1
290
     0
176
     1
290
     0
176
     1
 90
       50
176
     1
 40
0.0
176
     1
 40
1.0
176
     1
 90
        0
176
     1
 62
    18
420
        0
176
     1
 90
       50
176
     1
 90
        3
176
     1
 62
     5
420
      255
176
     1
290
     0
176
     1
 90
       50
176
     1
 90
       50
176
     1
 90
       50
176
     1
290
     0
176
     1
 90
       50
176
     1
 62
   256
176
     0
 40
1.0
176
     0
 90
        2
176
     1
  1
strokes_ogs.tif
176
     1
290
     0
176
     1
 40
1.0
176
     1
 40
1.0
176
     1
  0
VISUALSTYLE
  5
3E
102
{ACAD_REACTORS
330
2A
102
}
330
2A
100
AcDbVisualStyle
  2
Shades of Gray
 70
    23
177
     3
291
     0
 70
    58
 90
        2
176
     1
 90
        2
176
     1
 90
        3
176
     1
 90
        0
176
     1
 40
0.6
176
     1
 40
30.0
176
     1
 62
     7
420
 16777215
176
     1
 90
        2
176
     1
 90
        2
176
     1
 62
     7
176
     1
 62
     7
176
     1
 90
        1
176
     1
 90
        1
176
     1
 40
40.0
176
     1
 90
        8
176
     1
 62
     7
176
     1
 40
1.0
176
     1
 90
        1
176
     1
 90
        6
176
     1
 90
        2
176
     1
 62
     7
176
     1
 90
        3
176
     1
 90
        0
176
     1
 90
        0
176
     1
290
     0
176
     1
 90
        1
176
     1
 40
0.0
176
     1
 90
        0
176
     1
290
     0
176
     1
290
     1
176
     1
290
     1
176
     1
290
     0
176
     1
290
     0
176
     1
290
     0
176
     1
290
     0
176
     1
290
     0
176
     1
290
     0
176
     1
 90
       50
176
     1
 40
0.0
176
     1
 40
1.0
176
     1
 90
        0
176
     1
 62
    18
420
        0
176
     1
 90
       50
176
     1
 90
        3
176
     1
 62
     5
420
      255
176
     1
290
     0
176
     1
 90
       50
176
     1
 90
       50
176
     1
 90
       50
176
     1
290
     0
176
     1
 90
       50
176
     1
 62
   256
176
     0
 40
1.0
176
     0
 90
        2
176
     1
  1
strokes_ogs.tif
176
     1
290
     0
176
     1
 40
1.0
176
     1
 40
1.0
176
     1
  0
VISUALSTYLE
  5
3F
102
{ACAD_REACTORS
330
2A
102
}
330
2A
100
AcDbVisualStyle
  2
Sketchy
 70
    24
177
     3
291
     0
 70
    58
 90
        1
176
     1
 90
        2
176
     1
 90
        2
176
     1
 90
        0
176
     1
 40
0.6
176
     1
 40
30.0
176
     1
 62
     7
420
 16777215
176
     1
 90
        2
176
     1
 90
        2
176
     1
 62
     7
176
     1
 62
     7
176
     1
 90
        1
176
     1
 90
        1
176
     1
 40
40.0
176
     1
 90
       11
176
     1
 62
     7
176
     1
 40
1.0
176
     1
 90
        1
176
     1
 90
        6
176
     1
 90
        2
176
     1
 62
     7
176
     1
 90
        6
176
     1
 90
        0
176
     1
 90
        0
176
     1
290
     0
176
     1
 90
        1
176
     1
 40
0.0
176
     1
 90
        0
176
     1
290
     0
176
     1
290
     1
176
     1
290
     1
176
     1
290
     0
176
     1
290
     0
176
     1
290
     0
176
     1
290
     0
176
     1
290
     0
176
     1
290
     0
176
     1
 90
       50
176
     1
 40
0.0
176
     1
 40
1.0
176
     1
 90
        0
176
     1
 62
    18
420
        0
176
     1
 90
       50
176
     1
 90
        3
176
     1
 62
     5
420
      255
176
     1
290
     0
176
     1
 90
       50
176
     1
 90
       50
176
     1
 90
       50
176
     1
290
     0
176
     1
 90
       50
176
     1
 62
   256
176
     0
 40
1.0
176
     0
 90
        2
176
     1
  1
strokes_ogs.tif
176
     1
290
     0
176
     1
 40
1.0
176
     1
 40
1.0
176
     1
  0
VISUALSTYLE
  5
37
102
{ACAD_REACTORS
330
2A
102
}
330
2A
100
AcDbVisualStyle
  2
Thicken
 70
    13
177
     3
291
     1
 70
    58
 90
        2
176
     1
 90
        2
176
     1
 90
        0
176
     1
 90
        0
176
     1
 40
0.6
176
     1
 40
30.0
176
     1
 62
     7
420
 16777215
176
     1
 90
        1
176
     1
 90
        4
176
     1
 62
     7
176
     1
 62
   257
176
     1
 90
        1
176
     1
 90
        1
176
     1
 40
1.0
176
     1
 90
       12
176
     1
 62
     7
176
     1
 40
1.0
176
     1
 90
        1
176
     1
 90
        6
176
     1
 90
        2
176
     1
 62
     7
176
     1
 90
        5
176
     1
 90
        0
176
     1
 90
        0
176
     1
290
     0
176
     1
 90
        1
176
     1
 40
0.0
176
     1
 90
        0
176
     1
290
     0
176
     1
290
     1
176
     1
290
     1
176
     1
290
     0
176
     1
290
     0
176
     1
290
     0
176
     1
290
     0
176
     1
290
     0
176
     1
290
     0
176
     1
 90
       50
176
     1
 40
0.0
176
     1
 40
1.0
176
     1
 90
        0
176
     1
 62
    18
420
        0
176
     1
 90
       50
176
     1
 90
        3
176
     1
 62
     5
420
      255
176
     1
290
     0
176
     1
 90
       50
176
     1
 90
       50
176
     1
 90
       50
176
     1
290
     0
176
     1
 90
       50
176
     1
 62
   256
176
     0
 40
1.0
176
     0
 90
        2
176
     1
  1
strokes_ogs.tif
176
     1
290
     0
176
     1
 40
1.0
176
     1
 40
1.0
176
     1
  0
VISUALSTYLE
  5
30
102
{ACAD_REACTORS
330
2A
102
}
330
2A
100
AcDbVisualStyle
  2
Wireframe
 70
     5
177
     3
291
     0
 70
    58
 90
        0
176
     1
 90
        2
176
     1
 90
        0
176
     1
 90
        0
176
     1
 40
0.6
176
     1
 40
30.0
176
     1
 62
     7
420
 16777215
176
     1
 90
        1
176
     1
 90
        4
176
     1
 62
     7
176
     1
 62
   257
176
     1
 90
        1
176
     1
 90
        1
176
     1
 40
1.0
176
     1
 90
        0
176
     1
 62
   257
176
     1
 40
1.0
176
     1
 90
        1
176
     1
 90
        6
176
     1
 90
        2
176
     1
 62
     7
176
     1
 90
        3
176
     1
 90
        0
176
     1
 90
        0
176
     1
290
     0
176
     1
 90
        1
176
     1
 40
0.0
176
     1
 90
        0
176
     1
290
     0
176
     1
290
     1
176
     1
290
     1
176
     1
290
     0
176
     1
290
     0
176
     1
290
     0
176
     1
290
     0
176
     1
290
     0
176
     1
290
     0
176
     1
 90
       50
176
     1
 40
0.0
176
     1
 40
1.0
176
     1
 90
        0
176
     1
 62
    18
420
        0
176
     1
 90
       50
176
     1
 90
        3
176
     1
 62
     5
420
      255
176
     1
290
     0
176
     1
 90
       50
176
     1
 90
       50
176
     1
 90
       50
176
     1
290
     0
176
     1
 90
       50
176
     1
 62
   256
176
     0
 40
1.0
176
     0
 90
        2
176
     1
  1
strokes_ogs.tif
176
     1
290
     0
176
     1
 40
1.0
176
     1
 40
1.0
176
     1
  0
VISUALSTYLE
  5
40
102
{ACAD_REACTORS
330
2A
102
}
330
2A
100
AcDbVisualStyle
  2
X-Ray
 70
    25
177
     3
291
     0
 70
    58
 90
        2
176
     1
 90
        2
176
     1
 90
        1
176
     1
 90
        1
176
     1
 40
0.5
176
     1
 40
30.0
176
     1
 62
     7
420
 16777215
176
     1
 90
        1
176
     1
 90
        0
176
     1
 62
     7
176
     1
 62
   257
176
     1
 90
        1
176
     1
 90
        1
176
     1
 40
1.0
176
     1
 90
        8
176
     1
 62
     7
176
     1
 40
1.0
176
     1
 90
        1
176
     1
 90
        6
176
     1
 90
        2
176
     1
 62
     7
176
     1
 90
        3
176
     1
 90
        0
176
     1
 90
        0
176
     1
290
     0
176
     1
 90
       13
176
     1
 40
0.0
176
     1
 90
        0
176
     1
290
     0
176
     1
290
     1
176
     1
290
     1
176
     1
290
     0
176
     1
290
     0
176
     1
290
     0
176
     1
290
     0
176
     1
290
     0
176
     1
290
     0
176
     1
 90
       50
176
     1
 40
0.0
176
     1
 40
1.0
176
     1
 90
        0
176
     1
 62
    18
420
        0
176
     1
 90
       50
176
     1
 90
        3
176
     1
 62
     5
420
      255
176
     1
290
     0
176
     1
 90
       50
176
     1
 90
       50
176
     1
 90
       50
176
     1
290
     0
176
     1
 90
       50
176
     1
 62
   256
176
     0
 40
1.0
176
     0
 90
        2
176
     1
  1
strokes_ogs.tif
176
     1
290
     0
176
     1
 40
1.0
176
     1
 40
1.0
176
     1
  0
DICTIONARYVAR
  5
DE
102
{ACAD_REACTORS
330
DD
102
}
330
DD
100
DictionaryVariables
280
     0
  1
1:1
  0
DICTIONARYVAR
  5
E6
102
{ACAD_REACTORS
330
DD
102
}
330
DD
100
DictionaryVariables
280
     0
  1
3.500000
  0
DICTIONARYVAR
  5
E7
102
{ACAD_REACTORS
330
DD
102
}
330
DD
100
DictionaryVariables
280
     0
  1
acadiso.lin
  0
DICTIONARYVAR
  5
E3
102
{ACAD_REACTORS
330
DD
102
}
330
DD
100
DictionaryVariables
280
     0
  1
Standard
  0
DICTIONARYVAR
  5
E2
102
{ACAD_REACTORS
330
DD
102
}
330
DD
100
DictionaryVariables
280
     0
  1
Standard
  0
DICTIONARY
  5
DF
330
5A
100
AcDbDictionary
280
     1
281
     1
  3
ACAD_ROUNDTRIP_2008_TABLESTYLE_CELLSTYLEMAP
360
E0
  0
CELLSTYLEMAP
  5
E0
102
{ACAD_REACTORS
330
DF
102
}
330
DF
100
AcDbCellStyleMap
 90
        3
300
CELLSTYLE
  1
TABLEFORMAT_BEGIN
 90
        5
170
     1
 91
        0
 92
    32768
 62
   257
 93
        1
300
CONTENTFORMAT
  1
CONTENTFORMAT_BEGIN
 90
        0
 91
        0
 92
        4
 93
        0
300

 40
0.0
140
1.0
 94
        5
 62
     0
340
11
144
6.0
309
CONTENTFORMAT_END
171
     1
301
MARGIN
  1
CELLMARGIN_BEGIN
 40
1.5
 40
1.5
 40
1.5
 40
1.5
 40
1.5
 40
1.5
309
CELLMARGIN_END
 94
        6
 95
        1
302
GRIDFORMAT
  1
GRIDFORMAT_BEGIN
 90
        0
 91
        1
 62
     0
 92
       -2
340
14
 93
        0
 40
0.045
309
GRIDFORMAT_END
 95
        2
302
GRIDFORMAT
  1
GRIDFORMAT_BEGIN
 90
        0
 91
        1
 62
     0
 92
       -2
340
14
 93
        0
 40
0.045
309
GRIDFORMAT_END
 95
        4
302
GRIDFORMAT
  1
GRIDFORMAT_BEGIN
 90
        0
 91
        1
 62
     0
 92
       -2
340
14
 93
        0
 40
0.045
309
GRIDFORMAT_END
 95
        8
302
GRIDFORMAT
  1
GRIDFORMAT_BEGIN
 90
        0
 91
        1
 62
     0
 92
       -2
340
14
 93
        0
 40
0.045
309
GRIDFORMAT_END
 95
       16
302
GRIDFORMAT
  1
GRIDFORMAT_BEGIN
 90
        0
 91
        1
 62
     0
 92
       -2
340
14
 93
        0
 40
0.045
309
GRIDFORMAT_END
 95
       32
302
GRIDFORMAT
  1
GRIDFORMAT_BEGIN
 90
        0
 91
        1
 62
     0
 92
       -2
340
14
 93
        0
 40
0.045
309
GRIDFORMAT_END
309
TABLEFORMAT_END
  1
CELLSTYLE_BEGIN
 90
        1
 91
        1
300
_TITLE
309
CELLSTYLE_END
300
CELLSTYLE
  1
TABLEFORMAT_BEGIN
 90
        5
170
     1
 91
        0
 92
        0
 62
   257
 93
        1
300
CONTENTFORMAT
  1
CONTENTFORMAT_BEGIN
 90
        0
 91
        0
 92
        4
 93
        0
300

 40
0.0
140
1.0
 94
        5
 62
     0
340
11
144
4.5
309
CONTENTFORMAT_END
171
     1
301
MARGIN
  1
CELLMARGIN_BEGIN
 40
1.5
 40
1.5
 40
1.5
 40
1.5
 40
1.5
 40
1.5
309
CELLMARGIN_END
 94
        6
 95
        1
302
GRIDFORMAT
  1
GRIDFORMAT_BEGIN
 90
        0
 91
        1
 62
     0
 92
       -2
340
14
 93
        0
 40
0.045
309
GRIDFORMAT_END
 95
        2
302
GRIDFORMAT
  1
GRIDFORMAT_BEGIN
 90
        0
 91
        1
 62
     0
 92
       -2
340
14
 93
        0
 40
0.045
309
GRIDFORMAT_END
 95
        4
302
GRIDFORMAT
  1
GRIDFORMAT_BEGIN
 90
        0
 91
        1
 62
     0
 92
       -2
340
14
 93
        0
 40
0.045
309
GRIDFORMAT_END
 95
        8
302
GRIDFORMAT
  1
GRIDFORMAT_BEGIN
 90
        0
 91
        1
 62
     0
 92
       -2
340
14
 93
        0
 40
0.045
309
GRIDFORMAT_END
 95
       16
302
GRIDFORMAT
  1
GRIDFORMAT_BEGIN
 90
        0
 91
        1
 62
     0
 92
       -2
340
14
 93
        0
 40
0.045
309
GRIDFORMAT_END
 95
       32
302
GRIDFORMAT
  1
GRIDFORMAT_BEGIN
 90
        0
 91
        1
 62
     0
 92
       -2
340
14
 93
        0
 40
0.045
309
GRIDFORMAT_END
309
TABLEFORMAT_END
  1
CELLSTYLE_BEGIN
 90
        2
 91
        1
300
_HEADER
309
CELLSTYLE_END
300
CELLSTYLE
  1
TABLEFORMAT_BEGIN
 90
        5
170
     1
 91
        0
 92
        0
 62
   257
 93
        1
300
CONTENTFORMAT
  1
CONTENTFORMAT_BEGIN
 90
        0
 91
        0
 92
        4
 93
        0
300

 40
0.0
140
1.0
 94
        2
 62
     0
340
11
144
4.5
309
CONTENTFORMAT_END
171
     1
301
MARGIN
  1
CELLMARGIN_BEGIN
 40
1.5
 40
1.5
 40
1.5
 40
1.5
 40
1.5
 40
1.5
309
CELLMARGIN_END
 94
        6
 95
        1
302
GRIDFORMAT
  1
GRIDFORMAT_BEGIN
 90
        0
 91
        1
 62
     0
 92
       -2
340
14
 93
        0
 40
0.045
309
GRIDFORMAT_END
 95
        2
302
GRIDFORMAT
  1
GRIDFORMAT_BEGIN
 90
        0
 91
        1
 62
     0
 92
       -2
340
14
 93
        0
 40
0.045
309
GRIDFORMAT_END
 95
        4
302
GRIDFORMAT
  1
GRIDFORMAT_BEGIN
 90
        0
 91
        1
 62
     0
 92
       -2
340
14
 93
        0
 40
0.045
309
GRIDFORMAT_END
 95
        8
302
GRIDFORMAT
  1
GRIDFORMAT_BEGIN
 90
        0
 91
        1
 62
     0
 92
       -2
340
14
 93
        0
 40
0.045
309
GRIDFORMAT_END
 95
       16
302
GRIDFORMAT
  1
GRIDFORMAT_BEGIN
 90
        0
 91
        1
 62
     0
 92
       -2
340
14
 93
        0
 40
0.045
309
GRIDFORMAT_END
 95
       32
302
GRIDFORMAT
  1
GRIDFORMAT_BEGIN
 90
        0
 91
        1
 62
     0
 92
       -2
340
14
 93
        0
 40
0.045
309
GRIDFORMAT_END
309
TABLEFORMAT_END
  1
CELLSTYLE_BEGIN
 90
        3
 91
        2
300
_DATA
309
CELLSTYLE_END
  0
ENDSEC
  0
EOF
